<?xml version="1.0" standalone="no"?>
<!DOCTYPE svg PUBLIC "-//W3C//DTD SVG 1.1//EN" "http://www.w3.org/Graphics/SVG/1.1/DTD/svg11.dtd" >
<svg xmlns="http://www.w3.org/2000/svg" xmlns:xlink="http://www.w3.org/1999/xlink" version="1.1">
<metadata>
Created by FontForge 20190801 at Thu Jul 23 14:29:18 2020
 By Jimmy Wärting
</metadata>
<defs>
<font id="TheBrithney" horiz-adv-x="344" >
  <font-face 
    font-family="The Brithney"
    font-weight="400"
    font-stretch="normal"
    units-per-em="2000"
    panose-1="0 0 0 0 0 0 0 0 0 0"
    ascent="1600"
    descent="-400"
    x-height="700"
    cap-height="900"
    bbox="-189 -441 1641 1235"
    underline-thickness="50"
    underline-position="-125"
    unicode-range="U+000D-20AC"
  />
<missing-glyph horiz-adv-x="250" 
 />
    <glyph glyph-name=".notdef" horiz-adv-x="250" 
 />
    <glyph glyph-name=".null" horiz-adv-x="0" 
 />
    <glyph glyph-name="nonmarkingreturn" unicode="&#xd;" horiz-adv-x="500" 
 />
    <glyph glyph-name="space" unicode=" " horiz-adv-x="250" 
 />
    <glyph glyph-name="uni0000" horiz-adv-x="0" 
 />
    <glyph glyph-name="uni000D" horiz-adv-x="250" 
 />
    <glyph glyph-name="uni000D" horiz-adv-x="250" 
 />
    <glyph glyph-name="exclam" unicode="!" horiz-adv-x="248" 
d="M56 62q0 -29 20 -49t49 -20t49.5 20t20.5 49t-20.5 49.5t-49.5 20.5t-49 -20.5t-20 -49.5zM124 717q17 0 33.5 -5.5t29 -17.5t20.5 -30.5t8 -43.5q0 -87 -11.5 -144.5t-26 -104t-26 -91t-11.5 -104.5h-32q0 60 -11.5 104.5t-26 91t-26 104t-11.5 144.5q0 25 8 43.5
t20.5 30.5t29 17.5t33.5 5.5z" />
    <glyph glyph-name="quotedbl" unicode="&#x22;" horiz-adv-x="467" 
d="M343 717q17 0 33.5 -5.5t29 -17.5t20.5 -30.5t8 -43.5q0 -24 -11.5 -51.5t-26 -55t-26 -52.5t-11.5 -45h-32q0 20 -11.5 45t-26 52.5t-26 55t-11.5 51.5q0 25 8 43.5t20.5 30.5t29 17.5t33.5 5.5zM124 717q17 0 33.5 -5.5t29 -17.5t20.5 -30.5t8 -43.5q0 -24 -11.5 -51.5
t-26 -55t-26 -52.5t-11.5 -45h-32q0 20 -11.5 45t-26 52.5t-26 55t-11.5 51.5q0 25 8 43.5t20.5 30.5t29 17.5t33.5 5.5z" />
    <glyph glyph-name="numbersign" unicode="#" horiz-adv-x="650" 
d="M483 -1h-93v766h93v-766zM262 -1h-93v766h93v-766zM33 225v93h584v-93h-584zM33 446v93h584v-93h-584z" />
    <glyph glyph-name="dollar" unicode="$" horiz-adv-x="530" 
d="M170 328q-55 21 -87 55t-43.5 72.5t-3 78t36.5 72t74 52.5t108 21q47 0 90.5 -9.5t73.5 -20.5q8 5 14 11t10 12h8v-146h-7q-26 63 -76.5 96t-116.5 33q-49 0 -79 -19t-35.5 -46.5t17 -57.5t79.5 -52l119 -46q59 -23 93.5 -60.5t45.5 -81t0.5 -87.5t-41.5 -80t-81 -58.5
t-118 -22.5q-48 0 -93.5 10t-76.5 21q-9 -5 -15 -11t-10 -12h-8v146h7q26 -63 78 -96t118 -33q59 0 94 25t43.5 59.5t-11.5 69.5t-72 54zM273 762l13 -852h-30l-13 852h30z" />
    <glyph glyph-name="percent" unicode="%" horiz-adv-x="626" 
d="M139 0h-30l379 700h30zM455 293q40 0 66.5 -12t42.5 -33t22.5 -48.5t6.5 -58.5q0 -30 -6.5 -57.5t-22.5 -48t-42.5 -32.5t-66.5 -12t-66.5 12t-42.5 32.5t-22.5 48t-6.5 57.5q0 31 6.5 58.5t22.5 48.5t42.5 33t66.5 12zM455 0q19 0 31.5 11.5t19.5 30.5t9.5 45t2.5 54
q0 29 -2.5 55t-9.5 45.5t-19.5 31t-31.5 11.5t-31 -11.5t-19 -31t-10 -45.5t-3 -55q0 -28 3 -54t10 -45t19 -30.5t31 -11.5zM171 709q40 0 66.5 -12t42.5 -33t22.5 -48.5t6.5 -58.5q0 -30 -6.5 -57.5t-22.5 -48t-42.5 -32.5t-66.5 -12t-66.5 12t-42.5 32.5t-22.5 48
t-6.5 57.5q0 31 6.5 58.5t22.5 48.5t42.5 33t66.5 12zM171 416q19 0 31.5 11.5t19.5 30.5t9.5 45t2.5 54q0 29 -2.5 55t-9.5 45.5t-19.5 31t-31.5 11.5t-31 -11.5t-19 -31t-10 -45.5t-3 -55q0 -28 3 -54t10 -45t19 -30.5t31 -11.5z" />
    <glyph glyph-name="ampersand" unicode="&#x26;" horiz-adv-x="729" 
d="M23 193q0 40 13 73.5t35.5 60t54 45t67.5 27.5q-35 3 -61.5 17t-44.5 34t-27 44t-9 47q0 55 30 91.5t74.5 55.5t97 21.5t97 -11t74.5 -43t30 -74.5q0 -19 -6.5 -37.5t-18.5 -32.5t-29.5 -22.5t-39.5 -8.5q-41 0 -59.5 17.5t-23.5 61.5q5 -5 22 -5q27 0 40.5 20.5t13 45.5
t-15.5 45.5t-45 20.5q-15 0 -29.5 -6t-26 -19t-19 -33.5t-7.5 -48.5q0 -29 6 -59t22 -54.5t43.5 -40t70.5 -15.5v-20q-37 0 -65.5 -16t-47.5 -42t-28.5 -59t-9.5 -68q0 -34 9.5 -66t28 -57t47.5 -40t68 -15t66 14.5t42.5 36.5t19.5 47t-4 47t-28 36.5t-53 14.5
q-25 0 -45.5 -12.5t-28.5 -35.5h-5q0 1 -0.5 1.5t-0.5 1.5q-18 46 -6.5 78.5t40 60t67 52t73.5 53t59 64t24 85.5q0 15 -2.5 32.5t-10 34t-21.5 31t-38 25.5v15q73 0 115 -18.5t63 -44t26.5 -53t5.5 -45.5q-1 -52 -27 -88.5t-65.5 -63.5t-87 -46t-91.5 -37q42 -11 64.5 -49
t22.5 -86q0 -33 -13.5 -67t-42.5 -61t-74 -44.5t-108 -17.5q-49 0 -97 12.5t-85.5 38.5t-61 64.5t-23.5 89.5z" />
    <glyph glyph-name="quotesingle" unicode="'" horiz-adv-x="248" 
d="M124 717q17 0 33.5 -5.5t29 -17.5t20.5 -30.5t8 -43.5q0 -24 -11.5 -51.5t-26 -55t-26 -52.5t-11.5 -45h-32q0 20 -11.5 45t-26 52.5t-26 55t-11.5 51.5q0 25 8 43.5t20.5 30.5t29 17.5t33.5 5.5z" />
    <glyph glyph-name="parenleft" unicode="(" horiz-adv-x="300" 
d="M232 786q-36 -43 -60.5 -112.5t-36.5 -152t-12 -171t12 -171t36.5 -152t60.5 -112.5h-43q-76 93 -114 205.5t-38 229.5t38 230t114 206h43z" />
    <glyph glyph-name="parenright" unicode=")" horiz-adv-x="300" 
d="M76 786q76 -93 114 -206t38 -230t-37.5 -229.5t-114.5 -205.5h-43q37 43 61 112.5t36 152t12 171t-12 171t-36.5 152t-60.5 112.5h43z" />
    <glyph glyph-name="asterisk" unicode="*" horiz-adv-x="355" 
d="M68 682q17 0 26 -9l62 -53l-14 81q0 2 -0.5 4t-0.5 4q0 14 9.5 24t26.5 10t27 -10t10 -24q0 -2 -0.5 -4t-0.5 -4l-15 -81l62 53q9 9 26 9t26.5 -12.5t9.5 -24.5q0 -11 -8 -19.5t-18 -12.5l-79 -27l79 -28q10 -4 18 -12t8 -20t-9.5 -24.5t-26.5 -12.5q-16 0 -26 10l-62 53
l15 -82q0 -2 0.5 -3.5t0.5 -3.5q0 -15 -10 -25t-27 -10t-26.5 10t-9.5 25q0 2 0.5 3.5t0.5 3.5l14 82l-62 -53q-10 -10 -26 -10q-17 0 -26 12.5t-9 24.5t8 20t18 12l78 28l-78 27q-10 4 -18 12.5t-8 19.5q0 12 9 24.5t26 12.5z" />
    <glyph glyph-name="plus" unicode="+" horiz-adv-x="399" 
d="M33 420h120v120h93v-120h120v-93h-120v-120h-93v120h-120v93z" />
    <glyph glyph-name="comma" unicode="," horiz-adv-x="244" 
d="M120 132q43 0 60.5 -32t11.5 -74.5t-33.5 -86t-75.5 -66.5l-6 13q30 14 47 44t18 67q-5 -2 -10.5 -3t-11.5 -1q-29 0 -49.5 20.5t-20.5 49.5t20.5 49t49.5 20z" />
    <glyph glyph-name="hyphen" unicode="-" horiz-adv-x="354" 
d="M321 420v-93h-288v93h288z" />
    <glyph glyph-name="period" unicode="." horiz-adv-x="239" 
d="M50 62q0 29 20 49.5t49 20.5t49.5 -20.5t20.5 -49.5t-20.5 -49t-49.5 -20t-49 20t-20 49z" />
    <glyph glyph-name="slash" unicode="/" horiz-adv-x="297" 
d="M30 -65h-30l267 852h30z" />
    <glyph glyph-name="zero" unicode="0" horiz-adv-x="756" 
d="M378 709q94 0 157 -29t101 -78t54 -114.5t16 -138.5q0 -72 -16 -137t-54 -114t-101 -78t-157 -29t-157 29t-101 78t-54 114t-16 137q0 73 16 138.5t54 114.5t101 78t157 29zM378 13q45 0 74 27t45.5 73t23 107t6.5 129q0 69 -6.5 130t-23 107.5t-45.5 73.5t-74 27
t-74 -27t-45.5 -73.5t-23 -107.5t-6.5 -130q0 -68 6.5 -129t23 -107t45.5 -73t74 -27z" />
    <glyph glyph-name="one" unicode="1" horiz-adv-x="364" 
d="M70 8q11 6 22 19.5t11 36.5v555q0 7 -4.5 12t-11.5 5h-37v4l227 82h4v-658q0 -23 11 -36.5t22 -19.5v-8h-244v8z" />
    <glyph glyph-name="two" unicode="2" horiz-adv-x="567" 
d="M297 300q-32 -11 -63 -22t-56.5 -25t-43.5 -32t-26 -43h328q23 0 41 9t24 20h8l-33 -207h-426q0 95 18 157t46 102.5t62 64.5t65 43q41 25 69.5 60.5t28.5 89.5q0 50 -18 82.5t-45.5 48.5t-59 17t-59 -12t-45.5 -38.5t-18 -62.5t22 -57.5t50 -24.5t54.5 8t34.5 39h5
q3 -21 -1 -42.5t-15 -39t-30 -29t-48 -11.5q-36 0 -62 23.5t-37.5 58t-6.5 75.5t29 75.5t69.5 58t116.5 23.5q40 0 83 -11t78 -34.5t58 -59.5t23 -87q0 -50 -19.5 -85t-51 -60t-71 -41.5t-78.5 -30.5z" />
    <glyph glyph-name="three" unicode="3" horiz-adv-x="558" 
d="M266 0q-71 0 -116.5 23.5t-69.5 58t-29 75.5t6.5 75.5t37.5 58t62 23.5q29 0 48 -11.5t30 -29t15 -39t1 -42.5h-5q-9 30 -35 42t-54 7.5t-50 -26t-22 -58.5q0 -26 9 -45.5t24.5 -33t35.5 -20t41 -6.5q45 0 75.5 19.5t46.5 51t17.5 69.5t-11.5 74.5t-39.5 68t-67.5 48.5
v21q20 8 51 19t62.5 26.5t57 35.5t33.5 46h-261q-23 0 -41 -9t-24 -20h-8l33 207h359l-20 -148q-4 -34 -18.5 -59t-36 -43t-48.5 -31t-57 -23q39 -13 77 -29.5t67.5 -40.5t47.5 -58.5t18 -84.5q0 -51 -23 -87t-58 -59.5t-78 -34.5t-83 -11z" />
    <glyph glyph-name="four" unicode="4" horiz-adv-x="636" 
d="M522 158v-94q0 -23 11 -36.5t22 -19.5v-8h-244v8q11 6 22 19.5t11 36.5v94h-294v64l371 492h101v-416h36q23 0 41 9t24 20h8l-33 -169h-76zM344 298v265l-202 -265h202z" />
    <glyph glyph-name="five" unicode="5" horiz-adv-x="560" 
d="M510 232q0 -59 -23 -102.5t-59 -72.5t-79 -43t-83 -14q-71 0 -116.5 23.5t-69.5 58t-29 75.5t6.5 75.5t37.5 58t62 23.5q29 0 48 -11.5t30 -29t15 -39t1 -42.5h-5q-8 27 -34.5 39t-54.5 8t-50 -24.5t-22 -57.5t18.5 -62t45.5 -36t59.5 -7t59.5 25t45.5 60t18.5 97
q0 67 -21.5 113.5t-56.5 67t-80 13.5t-92 -48l-2 3l2 2l80 315h268q23 0 41 9t24 20h8l-49 -207h-305l-28 -102q60 36 128 42t126 -18t96.5 -77t38.5 -135z" />
    <glyph glyph-name="six" unicode="6" horiz-adv-x="659" 
d="M50 287q0 82 32 161.5t94 142.5t152.5 101.5t207.5 38.5l1 -13q-93 -16 -158 -71.5t-102 -133.5q7 1 14 1.5t15 0.5q79 0 135.5 -21t93.5 -56t55 -80t19 -93q1 -51 -17.5 -100t-54 -87.5t-87.5 -62.5t-117 -24q-60 0 -112 22.5t-90 62.5t-59.5 94t-21.5 117zM265 485
q-19 -45 -28 -94t-9 -98q0 -40 4.5 -88.5t16.5 -91t32.5 -71t51.5 -28.5q23 0 41 18.5t30 49.5t18.5 71t6.5 82q0 47 -8 92t-24.5 81t-42 58t-59.5 22q-16 0 -30 -3z" />
    <glyph glyph-name="seven" unicode="7" horiz-adv-x="549" 
d="M556 700v-9q-30 -12 -61.5 -46.5t-61 -85.5t-55 -115.5t-44.5 -136t-30 -147t-11 -149.5v-11h-178q0 60 23 127.5t60 136t83 135t91 123.5h-293q-23 0 -41 -9t-24 -20h-8l49 207h501z" />
    <glyph glyph-name="eight" unicode="8" horiz-adv-x="632" 
d="M78 179q0 -26 14 -54.5t39.5 -52t61 -38.5t77.5 -15q28 0 52.5 10t42.5 27t28.5 40t10.5 49q0 40 -23.5 71t-59 58.5t-77 54t-77 59.5t-59 74.5t-23.5 97.5q0 41 21 73.5t55 54.5t77 33.5t88 11.5q42 0 82 -10.5t70.5 -31.5t49.5 -53.5t19 -77.5q0 -34 -18 -59t-48 -44
t-69 -33.5t-81 -28.5q-46 -16 -91.5 -33.5t-81.5 -42t-58 -58.5t-22 -82zM518 573q0 30 -14.5 54t-37.5 41t-51 26t-56 9q-41 0 -72 -22t-31 -70q0 -41 24 -72.5t60.5 -59t78.5 -54t78.5 -58.5t60.5 -72t24 -95q0 -45 -22 -83t-59.5 -66t-86 -44t-101.5 -16q-51 0 -98 12.5
t-84 36.5t-59 59t-22 80q0 56 24 94t62 64.5t85.5 45t95.5 34.5q39 13 75.5 26.5t64.5 31.5t44.5 41.5t16.5 56.5z" />
    <glyph glyph-name="nine" unicode="9" horiz-adv-x="659" 
d="M609 428q0 -82 -32 -160.5t-94 -140t-152.5 -99t-207.5 -37.5l-1 13q93 16 158 71.5t102 133.5q-7 -1 -14 -1.5t-15 -0.5q-79 0 -135.5 21t-93.5 56t-55 80t-19 93q-1 51 17.5 100t54 87.5t87.5 62.5t117 24q60 0 112 -23.5t90 -65t59.5 -96.5t21.5 -118zM394 237
q19 45 28 94t9 98q0 40 -4.5 88.5t-16.5 91t-32 71t-52 28.5q-23 0 -41 -18.5t-30 -49.5t-18.5 -71t-6.5 -82q0 -46 8 -91.5t24.5 -81.5t42 -58t59.5 -22q17 0 30 3z" />
    <glyph glyph-name="colon" unicode=":" horiz-adv-x="240" 
d="M50 62q0 29 20 49.5t49 20.5t49.5 -20.5t20.5 -49.5t-20.5 -49t-49.5 -20t-49 20t-20 49zM51 517q0 29 20 49.5t49 20.5t49.5 -20.5t20.5 -49.5t-20.5 -49t-49.5 -20t-49 20t-20 49z" />
    <glyph glyph-name="semicolon" unicode=";" horiz-adv-x="245" 
d="M51 517q0 29 20 49.5t49 20.5t49.5 -20.5t20.5 -49.5t-20.5 -49t-49.5 -20t-49 20t-20 49zM120 132q43 0 60.5 -32t11.5 -74.5t-33.5 -86t-75.5 -66.5l-6 13q30 14 47 44t18 67q-5 -2 -10.5 -3t-11.5 -1q-29 0 -49.5 20.5t-20.5 49.5t20.5 49t49.5 20z" />
    <glyph glyph-name="less" unicode="&#x3c;" horiz-adv-x="524" 
d="M81 299l393 -210v-39l-424 230v37l424 230v-39z" />
    <glyph glyph-name="equal" unicode="=" horiz-adv-x="480" 
d="M430 399v-93h-380v93h380zM430 241v-93h-380v93h380z" />
    <glyph glyph-name="greater" unicode="&#x3e;" horiz-adv-x="524" 
d="M50 547l424 -230v-37l-424 -230v39l393 210l-393 209v39z" />
    <glyph glyph-name="question" unicode="?" horiz-adv-x="601" 
d="M268 175q0 52 9 89.5t22.5 66.5t29.5 53t29.5 49t22.5 54.5t9 69.5q0 36 -7.5 61t-20.5 40.5t-29 22t-33 6.5q-24 0 -40.5 -11.5t-27.5 -30.5t-16 -43t-5 -49q0 -23 3.5 -45.5t11 -40.5t18 -30t23.5 -15v-8q-45 -17 -87.5 -15.5t-75 19.5t-52 50.5t-19.5 78.5
q0 45 25 77.5t65 52.5t88.5 29.5t96.5 9.5q50 0 96.5 -11.5t83 -34t58.5 -57t22 -81.5q0 -43 -20.5 -72.5t-51.5 -52t-67 -42t-67 -45t-51.5 -60t-20.5 -85.5h-22zM214 62q0 -29 20 -49t49 -20t49.5 20t20.5 49t-20.5 49.5t-49.5 20.5t-49 -20.5t-20 -49.5z" />
    <glyph glyph-name="at" unicode="@" horiz-adv-x="883" 
d="M739 -66q-54 -45 -125.5 -73t-159.5 -28q-79 0 -156 25.5t-138 76.5t-98 129t-37 183q0 99 37 184t101 148t150 99t184 36q78 0 142.5 -24t111 -68.5t72 -107.5t25.5 -142q0 -54 -16 -108.5t-47.5 -98t-77.5 -70.5t-107 -27q-45 0 -77 22t-36 64q-26 -38 -58 -61t-65 -23
t-56 11.5t-37.5 31t-21 45.5t-6.5 56q0 46 20 96t53.5 91.5t78 68.5t93.5 27q29 0 52 -16.5t28 -47.5h3l22 58h78l-99 -282q-6 -17 -9 -36t0 -35t14.5 -26.5t33.5 -10.5q53 0 89 27t58.5 68.5t32.5 90t10 91.5q0 69 -23 123t-64 92t-97.5 58t-123.5 20q-86 0 -156.5 -34
t-121 -91.5t-78 -132.5t-27.5 -158q0 -82 21.5 -152t65 -121.5t108.5 -80t152 -28.5q85 0 149 22.5t116 65.5zM556 385q-7 43 -23.5 62.5t-47.5 19.5q-37 0 -65.5 -30t-48 -71.5t-29 -86t-9.5 -73.5q0 -11 1 -26.5t5.5 -30t14 -25t25.5 -10.5q43 0 73.5 28.5t43.5 65.5z" />
    <glyph glyph-name="A" unicode="A" horiz-adv-x="1102" 
d="M24 172q8 -16 19 -26t34 -10q34 0 69.5 20.5t74.5 50t84 62.5t99 58l246 656h22l408 -1046q8 -21 23.5 -36t26.5 -20v-8h-267v8q11 5 21 19.5t2 36.5l-96 251q-10 19 -26 38t-38 34.5t-50 25.5t-64 10q-55 0 -112 -29t-116 -66l-100 -264q-8 -21 -2.5 -36t16.5 -20v-8
h-90v8q14 5 28 19t22 37l91 242q-55 -33 -109.5 -59t-108.5 -26q-12 0 -30 2t-35 10t-30 23.5t-16 41.5zM437 340q32 12 67.5 19t74.5 7q66 0 109.5 -28.5t68.5 -64.5l-174 452z" />
    <glyph glyph-name="B" unicode="B" horiz-adv-x="1010" 
d="M25 49q0 60 12.5 109.5t35.5 89t55 70t69 51.5v464q0 12 -9 22t-21.5 17t-24.5 12t-18 6v8h526q65 0 113 -15t80.5 -41t48.5 -61t16 -75q0 -36 -12.5 -68t-34 -57t-51 -42t-64.5 -22q60 -16 106 -52t78 -85t48.5 -108.5t16.5 -122.5q0 -124 -48 -216.5t-125 -154
t-173.5 -92t-192.5 -30.5q-114 0 -195 34t-133.5 89.5t-77.5 126t-25 143.5zM59 49q0 -68 21.5 -133t68 -116.5t120 -83t176.5 -31.5q89 0 158 38.5t116.5 101t72.5 141.5t25 160q0 74 -16.5 143.5t-60 123.5t-119 86.5t-194.5 32.5h-52v-73q-50 0 -87.5 -17t-55.5 -35
q40 17 82.5 25.5t85.5 8.5q112 0 185 -40.5t109.5 -101t39 -131.5t-26 -131.5t-86.5 -101t-141 -40.5v10q45 6 75.5 40.5t44 82.5t8 102.5t-32 102.5t-76 81.5t-124.5 39.5v-397q0 -23 11 -37t22 -19v-8h-244v8q11 5 22 19t11 37v360q-60 -33 -98.5 -94.5t-39.5 -153.5z
M375 540h193q54 0 89.5 24.5t53.5 61t17.5 79.5t-18 79.5t-53.5 61t-89 24.5h-193v-330z" />
    <glyph glyph-name="C" unicode="C" horiz-adv-x="632" 
d="M33 386q0 122 41.5 229t117 187t181 126.5t233.5 46.5q36 0 73.5 -7t71.5 -17t61.5 -19.5t43.5 -14.5q9 -3 18 -2t15 4q8 2 15 7h6v-186h-6q-13 36 -36.5 72.5t-59.5 66.5t-86.5 49t-117.5 19q-84 0 -153.5 -37t-119.5 -108.5t-77.5 -175t-27.5 -236.5q0 -129 32 -239
t92.5 -190t149 -125.5t201.5 -45.5q64 0 117.5 13.5t96 33.5t73.5 42.5t49 40.5l7 -8q-15 -15 -45 -40.5t-76.5 -50t-110 -43t-146.5 -18.5q-164 0 -283.5 55t-197 144t-115 201t-37.5 226z" />
    <glyph glyph-name="D" unicode="D" horiz-adv-x="1063" 
d="M33 49q0 60 12.5 109.5t35.5 89t55 70t69 51.5v464q0 12 -9 22t-21.5 17t-24.5 12t-18 6v8h380q127 0 223.5 -46t162 -125.5t99 -186t33.5 -227.5q0 -135 -35 -255t-105.5 -209t-176.5 -141t-249 -52q-114 0 -195 34t-133.5 89.5t-77.5 126t-25 143.5zM67 49
q0 -68 21.5 -133t68 -116.5t120 -83t176.5 -31.5q99 0 173.5 48.5t124.5 132.5t75 197.5t25 242.5q0 116 -22 219t-66 179.5t-111 121t-157 44.5h-112v-431q-50 0 -87.5 -17t-55.5 -35q40 17 82.5 25.5t85.5 8.5q112 0 185 -40.5t109.5 -101t39 -131.5t-26 -131.5
t-86.5 -101t-141 -40.5v10q45 6 75.5 40.5t44 82.5t8 102.5t-32 102.5t-76 81.5t-124.5 39.5v-397q0 -23 11 -37t22 -19v-8h-244v8q11 5 22 19t11 37v360q-60 -33 -98.5 -94.5t-39.5 -153.5z" />
    <glyph glyph-name="E" unicode="E" horiz-adv-x="623" 
d="M-34 -66q4 24 26.5 42t51.5 24q10 2 17 12.5t7 30.5v792q0 24 -11.5 37.5t-22.5 19.5l1 8h639l19 -126h-8q-2 6 -9.5 22t-18 33t-23 30t-24.5 13h-364v-310h225q12 0 20 12.5t13 29t8 32t5 21.5h8v-218h-8q-2 6 -5 21.5t-8 32t-13 29t-20 12.5h-225v-534
q90 -12 175.5 -43t170 -64t169 -58.5t173.5 -25.5q72 0 126 15t92 37t62 47t36 45l2 -3q-4 -12 -22 -46.5t-60 -71t-112 -65t-178 -28.5q-104 0 -191 17t-161.5 42.5t-138 55.5t-120.5 55.5t-108.5 42.5t-102.5 17q-36 0 -55 -10.5t-33 -26.5z" />
    <glyph glyph-name="F" unicode="F" horiz-adv-x="576" 
d="M74 798q-29 6 -51.5 24t-26.5 42l4 2q14 -16 33 -26.5t55 -10.5q51 0 102.5 17t108.5 42.5t120.5 55.5t138 55.5t161.5 42.5t191 17q108 0 178 -28.5t112 -65t60 -71t22 -46.5l-2 -3q-12 20 -36 45t-62 47t-92 37t-126 15q-89 0 -173.5 -25.5t-169 -58.5t-170 -64
t-175.5 -43v-236h225q12 0 20 12.5t13 29t8 32t5 21.5h8v-218h-8q-2 6 -5 21.5t-8 32t-13 29t-20 12.5h-225v-596q0 -24 11.5 -37.5t22.5 -19.5l-1 -8h-244l-1 8q11 6 22.5 19.5t11.5 37.5v817q0 20 -7 30.5t-17 12.5z" />
    <glyph glyph-name="G" unicode="G" horiz-adv-x="1083" 
d="M604 947q-93 0 -163.5 -49.5t-118.5 -130t-72 -183.5t-24 -210.5t25.5 -210.5t77.5 -183.5t130.5 -130t184.5 -49.5q62 0 100.5 12.5t60 31.5t29.5 42.5t8 44.5v497h-286q-18 0 -29 -11t-16 -21h-8v60h550v-8q-11 -6 -22 -20.5t-11 -34.5v-467q0 -24 11.5 -37.5
t22.5 -19.5v-8q-16 0 -59.5 -14t-104 -31.5t-133.5 -31.5t-148 -14q-109 0 -194.5 25.5t-149.5 69.5t-108 104t-72 129.5t-40 145.5t-12 152q0 122 41.5 227.5t117 183.5t181 123t233.5 45q36 0 73.5 -7t71.5 -17t61.5 -19.5t43.5 -14.5q9 -3 18 -2t15 4q8 2 15 7h6v-186h-6
q-13 36 -36.5 72.5t-59.5 66.5t-86.5 49t-117.5 19z" />
    <glyph glyph-name="H" unicode="H" horiz-adv-x="806" 
d="M-186 350q8 -16 19.5 -26.5t34.5 -10.5q24 0 47.5 10t49 26.5t52 37.5t56.5 43v406q0 23 -11 37t-22 19v8h244v-8q-11 -5 -22 -19t-11 -37v-311q27 8 57 13t62 5q63 0 105 -26t68 -61v380q0 23 -11 37t-22 19v8h244v-8q-11 -5 -22 -19t-11 -37v-898q0 -24 11 -37.5
t22 -19.5v-8h-244v8q11 6 22 19.5t11 37.5v478q-23 24 -57.5 40.5t-82.5 16.5q-37 0 -75 -14t-77 -36v-485q0 -24 11 -37.5t22 -19.5v-8h-244v8q11 6 22 19.5t11 37.5v380q-38 -20 -75.5 -33.5t-75.5 -13.5q-12 0 -30 2t-35 10t-30 23.5t-16 41.5z" />
    <glyph glyph-name="I" unicode="I" 
d="M50 -127v8q11 6 22 19.5t11 37.5v898q0 23 -11 37t-22 19v8h244v-8q-11 -5 -22 -19t-11 -37v-898q0 -24 11 -37.5t22 -19.5v-8h-244z" />
    <glyph glyph-name="J" unicode="J" horiz-adv-x="985" 
d="M902 109q0 -110 -36.5 -196.5t-101 -145.5t-152 -90t-190.5 -31q-95 0 -166.5 30t-119.5 78.5t-73.5 111t-28.5 128t16.5 128t60.5 111t104 78.5t147 30q99 0 163 -36.5t95 -92t30.5 -119.5t-30.5 -119.5t-88 -92t-141 -36.5v9q41 6 68.5 39t40.5 78.5t9.5 96.5t-25 94.5
t-63.5 72t-105 28.5q-90 0 -148.5 -44t-83.5 -109.5t-17 -142.5t50 -142.5t118.5 -109.5t187.5 -44q77 0 133.5 26.5t94 71t55.5 102t18 119.5v846q0 23 -11 37t-22 19v8h244v-8q-11 -5 -22 -19t-11 -37v-727z" />
    <glyph glyph-name="K" unicode="K" horiz-adv-x="705" 
d="M50 -119q11 6 22 19.5t11 37.5v898q0 23 -11 37t-22 19v8h244v-8q-11 -5 -22 -19t-11 -37v-457l341 457q8 11 9.5 21t-1.5 18t-9.5 12.5t-14.5 4.5l1 8h139l-1 -8q-8 -3 -19.5 -8t-24 -12t-24.5 -16t-20 -20l-262 -352q62 -7 110 -43.5t88 -91t75 -122t70.5 -136.5
t74 -134t86.5 -116t108 -82t138 -31q43 0 78.5 6t67.5 18t61.5 30.5t60.5 42.5l5 -4q-38 -33 -73.5 -56.5t-71 -37.5t-73 -20.5t-80.5 -6.5q-134 0 -228.5 32t-159.5 84t-106 119t-67.5 137t-43.5 138t-35 122t-42 88t-63 38l-94 -127v-393q0 -24 11 -37.5t22 -19.5v-8h-244
v8z" />
    <glyph glyph-name="L" unicode="L" horiz-adv-x="485" 
d="M1 -66q4 24 26.5 42t51.5 24q10 2 17 12.5t7 30.5v792q0 24 -11.5 37.5t-22.5 19.5l1 8h244l1 -8q-11 -6 -22.5 -19.5t-11.5 -37.5v-835q90 -12 175.5 -43t170 -64t169 -58.5t173.5 -25.5q72 0 126 15t92 37t62 47t36 45l2 -3q-4 -12 -22 -46.5t-60 -71t-112 -65
t-178 -28.5q-104 0 -191 17t-161.5 42.5t-138 55.5t-120.5 55.5t-108.5 42.5t-102.5 17q-36 0 -55 -10.5t-33 -26.5z" />
    <glyph glyph-name="M" unicode="M" horiz-adv-x="1052" 
d="M110 753v-816q0 -25 11 -37.5t22 -18.5v-8h-93v8q11 6 22 19.5t11 36.5v899q0 23 -11 36.5t-22 19.5v8h172l295 -459l283 459h202v-8q-11 -6 -22 -19.5t-11 -36.5v-899q0 -23 11 -36.5t22 -19.5v-8h-244v8q11 6 22 18.5t11 37.5v899l-367 -595z" />
    <glyph glyph-name="N" unicode="N" horiz-adv-x="774" 
d="M651 -127l-541 880v-816q0 -25 11 -37.5t22 -18.5v-8h-93v8q11 6 22 19.5t11 36.5v899q0 23 -11 36.5t-22 19.5v8h172l442 -688v624q0 24 -11 37t-22 19v8h93v-8q-11 -6 -22 -19.5t-11 -36.5v-963h-40z" />
    <glyph glyph-name="O" unicode="O" horiz-adv-x="1270" 
d="M635 959q126 0 236 -47t191 -129t128 -193t47 -238t-47 -238t-128 -193t-191 -129t-236 -47t-236 47t-191 129t-128 193t-47 238t47 238t128 193t191 129t236 47zM635 -234q105 0 181.5 49.5t126.5 130.5t74.5 184.5t25.5 212.5q1 111 -22.5 217.5t-73.5 190.5
t-127.5 135t-184.5 51q-105 0 -182 -50t-127.5 -131.5t-74.5 -186t-24 -214.5t24 -216t74 -189t127 -133.5t183 -50.5z" />
    <glyph glyph-name="P" unicode="P" horiz-adv-x="873" 
d="M526 900q65 0 122.5 -24.5t100 -67t67 -100t24.5 -122.5t-24.5 -122t-67 -99.5t-100 -67t-122.5 -24.5h-265v-335q0 -24 11 -37.5t22 -19.5v-8h-244v8q11 6 22 19.5t11 37.5v898q0 23 -11 37t-22 19v8h476zM261 878v-583h109q69 0 123 23t91.5 62.5t57.5 92.5t20 113
t-21 113.5t-59 93t-92 62.5t-120 23h-109z" />
    <glyph glyph-name="Q" unicode="Q" horiz-adv-x="1273" 
d="M33 352q0 127 47 238t128 193t191 129t236 47t236 -47t191 -129t128 -193t47 -238q0 -88 -23 -168.5t-64.5 -149.5t-100 -124.5t-129.5 -93.5q50 -20 100 -38.5t100 -33.5t100.5 -24t102.5 -9q72 0 126 15t92 37t62 47t36 45l2 -3q-4 -12 -22 -46.5t-60 -71t-112 -65
t-178 -28.5q-79 0 -149 10.5t-131.5 27t-115.5 38t-103 43.5q-64 -15 -135 -15q-126 0 -236 47t-191 129t-128 193t-47 238zM385 -128q15 11 34.5 18.5t39 11.5t39 5.5t34.5 1.5q86 0 165 -20t156 -48q48 39 83.5 94.5t59 121t35.5 138.5t12 148q1 111 -22.5 217.5
t-73.5 190.5t-127.5 135t-184.5 51q-105 0 -182 -50t-127.5 -131.5t-74.5 -186t-24 -214.5q0 -70 9.5 -138.5t29 -131t49.5 -117t70 -96.5zM635 -234q52 0 95 12q-79 37 -148 65t-135 28q-32 0 -52 -9q46 -45 105.5 -70.5t134.5 -25.5z" />
    <glyph glyph-name="R" unicode="R" horiz-adv-x="874" 
d="M50 900h476q65 0 122.5 -24.5t100 -67t67 -100t24.5 -122.5q0 -57 -17.5 -109t-51 -93.5t-81.5 -69.5t-108 -36q63 -25 108.5 -75t83.5 -111.5t74 -126t81 -117t104.5 -86.5t144.5 -34q43 0 78.5 6t67.5 18t61.5 30.5t60.5 42.5l5 -4q-38 -33 -73.5 -56.5t-71 -37.5
t-73 -20.5t-80.5 -6.5q-119 0 -207.5 24t-153 63.5t-108.5 90t-73 103.5q-30 54 -52 106.5t-47 94t-58 66.5t-86 25h-107v-335q0 -24 11 -37.5t22 -19.5v-8h-244v8q11 6 22 19.5t11 37.5v898q0 23 -11 37t-22 19v8zM261 301h109q69 0 123 22t91.5 60.5t57.5 90.5t20 112
t-21 112.5t-59 91t-92 60.5t-120 22h-109v-571z" />
    <glyph glyph-name="S" unicode="S" horiz-adv-x="878" 
d="M452 950q36 0 68.5 -7.5t61 -17t51 -19.5t38.5 -15q9 -3 18 -2t15 4q8 2 15 7h6v-213h-6q-13 36 -34 77t-52 76t-71.5 58t-91.5 23q-25 0 -50.5 -8t-45 -23.5t-32 -38.5t-12.5 -53q0 -33 13.5 -61t36.5 -53t53.5 -48t65.5 -47l179 -121q101 -68 152 -155.5t60 -179
t-21.5 -179t-93.5 -156t-155.5 -110.5t-207.5 -42q-106 0 -185 30t-132 79t-81.5 111.5t-32.5 127.5t15.5 127.5t62 111.5t106.5 79t149 30q55 0 107 -15.5t92 -47t64 -77.5t24 -108q0 -46 -17 -91t-50 -80t-81 -56.5t-111 -21.5v9q40 6 69 39t43.5 78.5t12.5 97t-22 95
t-60.5 72t-104.5 28.5q-58 0 -104.5 -25.5t-78 -67t-47 -95t-12.5 -109t26 -109t68.5 -95t115 -67t165.5 -25.5q83 0 145 34.5t100.5 90.5t53 126.5t3 142t-50 137.5t-106.5 113l-168 116q-40 28 -77 57.5t-65 62.5t-44.5 71.5t-16.5 84.5q0 48 16.5 92t50 77.5t83 53.5
t115.5 20z" />
    <glyph glyph-name="T" unicode="T" horiz-adv-x="907" 
d="M284 424q-66 0 -116 27t-82 71.5t-45 101t-5.5 115.5t35.5 115.5t79 101t125.5 71.5t173.5 27q104 0 194.5 -17t170.5 -42.5t150 -55.5t132 -55.5t117.5 -42.5t106.5 -17q36 0 55 10.5t33 26.5l8 -4q-4 -28 -26.5 -45t-51 -26t-58.5 -12t-50 -3q-60 0 -121.5 13
t-123.5 32.5t-124.5 43t-124.5 46.5l92 -73v-895q0 -23 11 -37t22 -20v-8h-244v8q11 6 22 20t11 37v998q-66 21 -129 34.5t-126 13.5q-105 0 -174.5 -33.5t-105.5 -84t-40.5 -109t20.5 -109t77 -84t129 -33.5q51 0 87.5 15.5t59.5 40.5t34 55.5t11.5 60.5t-8 56t-24.5 41
l4 3q32 -22 49.5 -59t20 -79t-11.5 -85t-44.5 -77.5t-79 -56.5t-115.5 -22z" />
    <glyph glyph-name="U" unicode="U" horiz-adv-x="808" 
d="M758 892q-11 -7 -22 -20t-11 -37v-794q0 -60 -21.5 -107t-62 -79.5t-98.5 -49.5t-131 -17q-67 0 -126.5 16.5t-104.5 48.5t-71 79.5t-26 110.5v792q0 24 -10.5 36.5t-23.5 20.5v8h244v-8q-12 -8 -22 -19.5t-10 -34.5v-782q0 -65 18 -109.5t47.5 -72t67 -40t77.5 -12.5
q42 0 82 13.5t72 40.5t51.5 66.5t19.5 90.5v803q0 23 -11 35.5t-22 20.5v8h94v-8z" />
    <glyph glyph-name="V" unicode="V" horiz-adv-x="922" 
d="M50 836q-8 21 -23.5 36t-26.5 20v8h267v-8q-11 -5 -21 -19.5t-2 -36.5l303 -788l299 788q8 21 2.5 36t-16.5 20v8h90v-8q-14 -5 -28 -19t-22 -37l-392 -1046h-22z" />
    <glyph glyph-name="W" unicode="W" horiz-adv-x="1264" 
d="M50 836q-8 21 -23.5 36t-26.5 20v8h267v-8q-11 -5 -21 -19.5t-2 -36.5l303 -788l100 264l-204 524q-8 21 -23.5 36t-26.5 20v8h267v-8q-11 -5 -21 -19.5t-2 -36.5l105 -274l104 274q8 21 2.5 36t-16.5 20v8h90v-8q-14 -5 -28 -19t-22 -37l-116 -310l184 -478l299 788
q8 21 2.5 36t-16.5 20v8h90v-8q-14 -5 -28 -19t-22 -37l-392 -1046h-22l-189 485l-182 -485h-22z" />
    <glyph glyph-name="X" unicode="X" horiz-adv-x="732" 
d="M-48 -127v7q14 6 31.5 20.5t30.5 36.5l274 478l-234 421q-24 44 -54 56v8h257l-1 -8q-7 -6 -9 -18t12 -38l181 -326l187 326q13 22 6 36t-15 20v8h98v-8q-14 -6 -32 -20t-31 -36l-200 -350l305 -549q14 -24 26.5 -37t26.5 -19v-8h-256v8q8 6 10 18.5t-12 37.5l-252 454
l-260 -455q-14 -25 -9.5 -37.5t12.5 -17.5v-8h-92z" />
    <glyph glyph-name="Y" unicode="Y" horiz-adv-x="726" 
d="M0 900h246v-8q-7 -6 -6.5 -19.5t14.5 -36.5l226 -391l217 392q7 13 8 22t-1.5 15.5t-7 10.5t-8.5 7v8h98v-8q-14 -6 -31.5 -18t-31.5 -38l-227 -409v-490q0 -23 11 -36.5t22 -19.5v-8h-244v8q11 6 22 19.5t11 36.5v469l-254 430q-14 24 -31.5 37t-32.5 19v8z" />
    <glyph glyph-name="Z" unicode="Z" horiz-adv-x="670" 
d="M658 -127h-712v8q14 6 26.5 18t26.5 38l476 935h-309q-12 0 -24.5 -13t-23 -30t-18 -33t-9.5 -22h-8l19 126h608v-8q-31 -13 -53 -56l-476 -935h413q12 0 24.5 13t23 30t18 33t9.5 22h8z" />
    <glyph glyph-name="bracketleft" unicode="[" horiz-adv-x="329" 
d="M205 -46v-17h-165v827h165v-17h-78v-793h78z" />
    <glyph glyph-name="backslash" unicode="\" horiz-adv-x="297" 
d="M30 787l267 -852h-30l-267 852h30z" />
    <glyph glyph-name="bracketright" unicode="]" horiz-adv-x="269" 
d="M118 747h-78v17h165v-827h-165v17h78v793z" />
    <glyph glyph-name="asciicircum" unicode="^" horiz-adv-x="484" 
d="M40 424l180 284h37l180 -284h-39l-160 253l-159 -253h-39z" />
    <glyph glyph-name="grave" unicode="`" horiz-adv-x="201" 
d="M159 975l-86 89q-40 40 -40 52q0 3 5 8.5t12 11t14.5 9t12.5 3.5q3 0 13.5 -15t21.5 -38l56 -113z" />
    <glyph glyph-name="a" unicode="a" horiz-adv-x="704" 
d="M0 8q14 5 27 19.5t23 36.5l285 656h46l271 -656q8 -18 24.5 -34.5t27.5 -21.5v-8h-267v8q11 5 21 21.5t2 34.5l-58 142h-259l-62 -142q-10 -23 -3.5 -37t17.5 -19v-8h-95v8zM155 234h235l-114 277z" />
    <glyph glyph-name="b" unicode="b" horiz-adv-x="656" 
d="M83 636q0 23 -11 36.5t-22 19.5v8h325q44 0 83.5 -8t70.5 -25t49 -43t18 -61q0 -57 -29.5 -88.5t-76.5 -42.5q70 -23 110.5 -75.5t40.5 -124.5q0 -53 -20 -96t-62 -73t-106 -46.5t-152 -16.5h-251v8q11 6 22 19.5t11 36.5v572zM297 28q55 0 92 28.5t55.5 71.5t18.5 93.5
t-18 93.5t-54.5 71.5t-91.5 28.5h-38v-387h36zM261 672v-229h36q25 0 47 8t38.5 23t26 36t9.5 46q0 51 -30 83.5t-92 32.5h-35z" />
    <glyph glyph-name="c" unicode="c" horiz-adv-x="634" 
d="M15 351q0 175 98 264t288 94q48 1 92.5 -10.5t74.5 -23.5q9 5 15 11.5t10 13.5h8v-165h-7q-26 72 -76.5 109t-116.5 37q-50 0 -88.5 -23.5t-64.5 -66.5t-39.5 -103t-13.5 -133q0 -76 13.5 -137.5t39.5 -105t64.5 -67.5t88.5 -24q66 0 116.5 37t76.5 109h7v-157h-8
q-7 12 -17 21q-30 -14 -77 -27t-98 -11q-190 5 -288 94t-98 264z" />
    <glyph glyph-name="d" unicode="d" horiz-adv-x="692" 
d="M50 8q11 6 22 19.5t11 36.5v572q0 23 -11 36.5t-22 19.5v8h226q104 0 177 -28t119 -76t66.5 -111.5t20.5 -134.5q0 -70 -20 -133.5t-61 -111.5t-103.5 -76.5t-148.5 -28.5h-276v8zM261 28h14q65 0 105 25.5t62.5 69t30.5 102.5t8 125t-8 125t-30 102.5t-62 69t-105 25.5
h-15v-644z" />
    <glyph glyph-name="e" unicode="e" horiz-adv-x="586" 
d="M83 636q0 23 -11 36.5t-22 19.5v8h481l18 -155h-8q-2 6 -9.5 26.5t-18 43t-23 40t-24.5 17.5h-205v-244h137q12 0 20 12.5t13 29t8 32t5 21.5h8v-218h-8q-2 6 -5 21.5t-8 32t-13 29t-20 12.5h-137v-372h222q12 0 24.5 17.5t23 40t18 43t9.5 26.5h8l-18 -155h-498v8
q11 6 22 19.5t11 36.5v572z" />
    <glyph glyph-name="f" unicode="f" horiz-adv-x="583" 
d="M50 8q11 6 22 19.5t11 36.5v572q0 23 -11 36.5t-22 19.5v8h481l18 -155h-8q-2 6 -9.5 26.5t-18 43t-23 40t-24.5 17.5h-205v-244h137q12 0 20 12.5t13 29t8 32t5 21.5h8v-218h-8q-2 6 -5 21.5t-8 32t-13 29t-20 12.5h-137v-336q0 -23 11 -36.5t22 -19.5v-8h-244v8z" />
    <glyph glyph-name="g" unicode="g" horiz-adv-x="660" 
d="M401 -9q-197 -5 -291.5 89t-94.5 271q0 82 25 147t72.5 111.5t116.5 72t157 27.5q24 0 49.5 -3t50 -8t46 -11t36.5 -12q9 5 15 11.5t10 13.5h8v-165h-7q-26 72 -76.5 109t-116.5 37q-50 0 -88.5 -23.5t-64.5 -66.5t-39.5 -103t-13.5 -133q0 -77 12 -139t37.5 -105.5
t64 -67t92.5 -23.5q14 0 23.5 2.5t17.5 6.5v289q0 23 -11 36.5t-22 19.5v8h244v-8q-11 -6 -22 -19.5t-11 -36.5v-248q0 -9 6 -13v-6q-11 -9 -35.5 -19t-55.5 -19t-66 -15t-68 -7z" />
    <glyph glyph-name="h" unicode="h" horiz-adv-x="742" 
d="M83 636q0 23 -11 36.5t-22 19.5v8h244v-8q-11 -6 -22 -19.5t-11 -36.5v-242h220v242q0 23 -11 36.5t-22 19.5v8h244v-8q-11 -6 -22 -19.5t-11 -36.5v-572q0 -23 11 -36.5t22 -19.5v-8h-244v8q11 6 22 19.5t11 36.5v302h-220v-302q0 -23 11 -36.5t22 -19.5v-8h-244v8
q11 6 22 19.5t11 36.5v572z" />
    <glyph glyph-name="i" unicode="i" 
d="M50 700h244v-8q-11 -6 -22 -19.5t-11 -36.5v-572q0 -23 11 -36.5t22 -19.5v-8h-244v8q11 6 22 19.5t11 36.5v572q0 23 -11 36.5t-22 19.5v8z" />
    <glyph glyph-name="j" unicode="j" horiz-adv-x="339" 
d="M256 110q0 -53 -21 -92.5t-59 -65t-91 -38t-118 -12.5v11q20 4 40 17t36 36.5t25.5 59t9.5 84.5v526q0 23 -11 36.5t-22 19.5v8h244v-8q-11 -6 -22 -19.5t-11 -36.5v-526z" />
    <glyph glyph-name="k" unicode="k" horiz-adv-x="682" 
d="M294 700v-8q-11 -6 -22 -19.5t-11 -36.5v-333l231 336q17 26 17.5 36.5t-10.5 16.5v8h109v-8q-15 0 -34.5 -10.5t-45.5 -46.5l-72 -103l209 -450q10 -22 24.5 -44t37.5 -30l1 -8h-99q-121 0 -170 108l-119 259l-79 -112v-191q0 -23 11 -36.5t22 -19.5v-8h-244v8
q11 6 22 19.5t11 36.5v572q0 23 -11 36.5t-22 19.5v8h244z" />
    <glyph glyph-name="l" unicode="l" horiz-adv-x="569" 
d="M294 700v-8q-11 -6 -22 -19.5t-11 -36.5v-608h205q12 0 24.5 17.5t23 40t18 43t9.5 26.5h8l-18 -155h-481v8q11 6 22 19.5t11 36.5v572q0 23 -11 36.5t-22 19.5v8h244z" />
    <glyph glyph-name="m" unicode="m" horiz-adv-x="841" 
d="M50 8q11 6 22 19.5t11 36.5v574q0 23 -11 35.5t-22 18.5v8h187l196 -277l175 277h183v-8q-11 -6 -22 -19.5t-11 -36.5v-572q0 -23 11 -36.5t22 -19.5v-8h-244v8q11 6 22 19.5t11 36.5v550l-246 -390l-223 318v-479q0 -23 10 -36t21 -19v-8h-92v8z" />
    <glyph glyph-name="n" unicode="n" horiz-adv-x="650" 
d="M50 8q11 6 22 19.5t11 36.5v572q0 23 -11 36.5t-22 19.5v8h122l408 -430v366q0 24 -11 37t-22 19v8h93v-8q-11 -6 -22 -19.5t-11 -36.5v-649h-27l-470 495v-418q0 -25 11 -37.5t22 -18.5v-8h-93v8z" />
    <glyph glyph-name="o" unicode="o" horiz-adv-x="770" 
d="M15 349q0 82 24.5 148.5t71.5 113.5t116 72.5t158 25.5t158 -25.5t116 -72.5t71.5 -113.5t24.5 -148.5t-24.5 -148t-71.5 -112.5t-116 -72t-158 -25.5t-158 25.5t-116 72t-71.5 112.5t-24.5 148zM385 687q-47 0 -83 -28.5t-60 -75.5t-36 -106.5t-12 -122.5
q0 -64 11.5 -125t35.5 -109t60 -77.5t84 -29.5q47 0 82.5 30t59.5 78t36.5 109t12.5 123q0 65 -11.5 125t-35 106.5t-59.5 74.5t-85 28z" />
    <glyph glyph-name="p" unicode="p" horiz-adv-x="674" 
d="M340 700q89 0 149.5 -17t98.5 -46.5t54.5 -69t16.5 -84.5t-14.5 -84.5t-44 -69t-74.5 -46.5t-105 -17h-160v-204q0 -23 11 -36t22 -18v-8h-244v8q11 6 22 19.5t11 36.5v572q0 23 -11 36.5t-22 19.5v8h290zM261 678v-390h34q39 2 72.5 18t59 42t40 61t14.5 74
q0 40 -12.5 75.5t-37 62t-61 42t-84.5 15.5h-25z" />
    <glyph glyph-name="q" unicode="q" horiz-adv-x="775" 
d="M15 349q0 82 24.5 148.5t71.5 113.5t116 72.5t158 25.5t158 -25.5t116 -72.5t71.5 -113.5t24.5 -148.5q0 -113 -46 -195t-134 -124q29 -25 57.5 -50t57.5 -46t58 -35.5t59 -19.5q20 -3 36 -3q36 0 65 11.5t51 28.5t38 36.5t25 36.5l1 -3q-4 -11 -18.5 -39.5t-41 -58
t-66.5 -52.5t-94 -23q-19 0 -40 3q-51 9 -93.5 28t-78 43.5t-65.5 53t-57 56.5q-39 -6 -84 -6q-89 0 -158 25.5t-116 72t-71.5 112.5t-24.5 148zM385 687q-49 0 -85 -30t-60 -79t-35.5 -111t-10.5 -126.5t14 -125.5t39 -107q12 32 37 42.5t49 10.5q50 0 94 -23.5t82 -52.5
q30 44 46.5 105.5t19.5 128.5t-7 133t-34 118t-61 84.5t-88 32.5zM294 126q-15 0 -25 -6.5t-19 -17.5q24 -41 57.5 -65t77.5 -24q32 0 57 13q-13 14 -30 31.5t-36.5 32.5t-40 25.5t-41.5 10.5z" />
    <glyph glyph-name="r" unicode="r" horiz-adv-x="700" 
d="M50 8q11 6 22 19.5t11 36.5v572q0 23 -11 36.5t-22 19.5v8h304q89 0 149.5 -17t98.5 -46.5t54.5 -69t16.5 -84.5q0 -72 -46.5 -128t-140.5 -78l132 -195q6 -9 17.5 -21.5t25.5 -24t28 -20t26 -8.5l-2 -8h-152q-30 0 -51 6.5t-35 16t-22.5 19.5t-13.5 17l-131 207h-47
v-204q0 -23 11 -36t22 -18v-8h-244v8zM261 294h40q48 0 84.5 14.5t60.5 40t36.5 60t12.5 74.5t-12.5 74.5t-36.5 60t-60.5 40t-84.5 14.5h-40v-378z" />
    <glyph glyph-name="s" unicode="s" horiz-adv-x="494" 
d="M152 312q-55 24 -87 62t-43.5 82t-3 89t36.5 81t74 59t108 24q47 1 90.5 -10.5t73.5 -23.5q8 5 14 11.5t10 13.5h8v-165h-7q-26 72 -76.5 109t-116.5 37q-49 0 -79 -22t-35.5 -53t17 -65t79.5 -58l119 -51q59 -25 93.5 -67.5t46 -91.5t0.5 -99.5t-42 -91t-81 -66
t-118 -25.5q-48 0 -93.5 11t-76.5 23q-9 -5 -15 -11.5t-10 -13.5h-8v165h7q26 -72 78 -109t118 -37q59 0 94 28.5t43.5 67t-11.5 78t-72 61.5z" />
    <glyph glyph-name="t" unicode="t" horiz-adv-x="604" 
d="M38 700h528l18 -155h-8q-2 6 -9.5 26.5t-18 43t-23 40t-24.5 17.5h-110v-608q0 -23 11 -36.5t22 -19.5v-8h-244v8q11 6 22 19.5t11 36.5v608h-110q-12 0 -24.5 -17.5t-23 -40t-18 -43t-9.5 -26.5h-8z" />
    <glyph glyph-name="u" unicode="u" horiz-adv-x="644" 
d="M594 692q-11 -9 -22 -21t-11 -36v-410q0 -81 -35.5 -132.5t-88.5 -76t-114.5 -23t-114.5 25.5t-88.5 69.5t-35.5 108.5v438q0 24 -10.5 36t-23.5 21v8h244v-8q-11 -9 -21.5 -20t-10.5 -34v-413q0 -57 20 -95t50 -57.5t65.5 -19.5t65.5 19t50 57.5t20 96.5v410
q0 23 -11 35t-22 21v8h94v-8z" />
    <glyph glyph-name="v" unicode="v" horiz-adv-x="699" 
d="M0 700h267v-8q-11 -5 -21 -21.5t-2 -34.5l184 -447l195 447q10 23 3.5 37t-17.5 19v8h95v-8q-14 -5 -27 -19.5t-23 -36.5l-282 -649h-52l-268 649q-8 18 -24.5 34.5t-27.5 21.5v8z" />
    <glyph glyph-name="w" unicode="w" horiz-adv-x="1008" 
d="M52 636q-8 18 -24.5 34.5t-27.5 21.5v8h267v-8q-11 -5 -21 -21.5t-2 -34.5l184 -447l58 133l-130 314q-8 18 -24.5 34.5t-27.5 21.5v8h267v-8q-11 -5 -21 -21.5t-2 -34.5l36 -88l39 88q10 23 3.5 37t-17.5 19v8h95v-8q-14 -5 -27 -19.5t-23 -36.5l-54 -125l132 -322
l195 447q10 23 3.5 37t-17.5 19v8h95v-8q-14 -5 -27 -19.5t-23 -36.5l-282 -649h-52l-123 297l-129 -297h-52z" />
    <glyph glyph-name="x" unicode="x" horiz-adv-x="628" 
d="M1 700h259l-1 -8q-8 -6 -11.5 -19.5t10.5 -36.5l105 -187l118 188q7 12 8 21t-1.5 15.5t-7 11l-7.5 7.5v8h105v-8q-14 -5 -31 -18.5t-32 -36.5l-136 -216l200 -357q14 -23 24.5 -36.5t24.5 -19.5v-8h-259v8q8 6 12 19.5t-10 36.5l-128 227l-143 -228q-14 -23 -9 -36.5
t13 -18.5v-8h-100v7q14 6 31 19.5t32 36.5l160 257l-177 316q-14 23 -25 36.5t-25 19.5z" />
    <glyph glyph-name="y" unicode="y" horiz-adv-x="596" 
d="M246 700v-8q-7 -6 -6.5 -20t14.5 -36l123 -196l123 197q8 13 9 22.5t-1.5 16t-7.5 10.5t-9 6v8h105v-8q-14 -6 -31 -19.5t-32 -36.5l-137 -220v-352q0 -23 11 -36.5t22 -19.5v-8h-244v8q11 6 22 19.5t11 36.5v332l-154 240q-14 23 -31.5 36.5t-32.5 19.5v8h246z" />
    <glyph glyph-name="z" unicode="z" horiz-adv-x="571" 
d="M16 8q14 6 29.5 21t23.5 35l247 608h-176q-12 0 -24.5 -17.5t-23 -40t-18 -43t-9.5 -26.5h-8l18 155h475v-8q-14 -6 -28.5 -19t-24.5 -37l-247 -608h226q12 0 24.5 17.5t23 40t18 43t9.5 26.5h8l-18 -155h-525v8z" />
    <glyph glyph-name="braceleft" unicode="{" horiz-adv-x="234" 
d="M167 -64q-60 0 -96 35.5t-36 94.5v216q0 28 -13.5 44.5t-36.5 16.5h-5v13h5q23 0 36.5 19.5t13.5 51.5v206q0 59 36 94.5t96 35.5h44v-13q-40 0 -64.5 -32t-24.5 -85v-163q0 -49 -20.5 -81.5t-55.5 -38.5q35 -7 55.5 -36.5t20.5 -74.5v-173q0 -53 24.5 -85t64.5 -32v-13
h-44z" />
    <glyph glyph-name="bar" unicode="|" horiz-adv-x="132" 
d="M99 -65h-66v852h66v-852z" />
    <glyph glyph-name="braceright" unicode="}" horiz-adv-x="234" 
d="M-20 -64v13q40 0 64.5 32t24.5 85v173q0 45 20.5 74.5t55.5 36.5q-35 6 -55.5 38.5t-20.5 81.5v163q0 53 -24.5 85t-64.5 32v13h44q60 0 96 -35.5t36 -94.5v-206q0 -32 13.5 -51.5t36.5 -19.5h5v-13h-5q-23 0 -36.5 -16.5t-13.5 -44.5v-216q0 -59 -36 -94.5t-96 -35.5
h-44z" />
    <glyph glyph-name="exclamdown" unicode="&#xa1;" horiz-adv-x="248" 
d="M192 648q0 29 -20 49t-49 20t-49.5 -20t-20.5 -49t20.5 -49.5t49.5 -20.5t49 20.5t20 49.5zM124 -7q-17 0 -33.5 5.5t-29 17.5t-20.5 30.5t-8 43.5q0 87 11.5 145t26 104.5t26 90.5t11.5 104h32q0 -60 11.5 -104t26 -90.5t26 -104.5t11.5 -145q0 -25 -8 -43.5
t-20.5 -30.5t-29 -17.5t-33.5 -5.5z" />
    <glyph glyph-name="yen" unicode="&#xa5;" horiz-adv-x="786" 
d="M246 900v-8q-7 -6 -6.5 -19.5t14.5 -36.5l226 -391l217 392q7 13 8 22t-1.5 15.5t-7 10.5t-8.5 7v8h98v-8q-14 -6 -31.5 -18t-31.5 -38l-227 -409v-28h102v-93h-102v-65h102v-93h-102v-211q0 -23 11 -36.5t22 -19.5v-8h-244v8q11 6 22 19.5t11 36.5v211h-100v93h100v65
h-100v93h100v7l-254 430q-14 24 -31.5 37t-32.5 19v8h246z" />
    <glyph glyph-name="dieresis" unicode="&#xa8;" horiz-adv-x="348" 
d="M80 977q-21 0 -34 13t-13 34q0 22 13 35t34 13q22 0 35 -13t13 -35q0 -21 -13 -34t-35 -13zM268 977q-22 0 -35 13t-13 34q0 22 13 35t35 13q21 0 34 -13t13 -35q0 -21 -13 -34t-34 -13z" />
    <glyph glyph-name="guillemotleft" unicode="&#xab;" horiz-adv-x="402" 
d="M371 165l-180 184v9l178 184l14 -9l-88 -179l90 -180zM200 165l-180 184v9l178 184l14 -9l-88 -179l90 -180z" />
    <glyph glyph-name="acute" unicode="&#xb4;" horiz-adv-x="201" 
d="M89 1095q11 23 21.5 38t13.5 15q5 0 12.5 -3.5t14.5 -9t12 -11t5 -8.5q0 -12 -40 -52l-86 -89l-9 7z" />
    <glyph glyph-name="cedilla" unicode="&#xb8;" horiz-adv-x="250" 
d="M108 -215l-38 -64q18 9 41.5 8.5t45 -8.5t36 -24.5t14.5 -40.5q0 -39 -28.5 -62.5t-76.5 -23.5q-26 0 -52 7t-41 18l3 9q8 -5 24.5 -8t36.5 -3q27 0 42 18.5t17.5 40.5t-8 40.5t-35.5 18.5q-12 0 -21 -4t-23 -11l-5 2l40 90z" />
    <glyph glyph-name="guillemotright" unicode="&#xbb;" horiz-adv-x="406" 
d="M110 354l-88 179l14 9l178 -184v-9l-180 -184l-14 9zM281 354l-88 179l14 9l178 -184v-9l-180 -184l-14 9z" />
    <glyph glyph-name="questiondown" unicode="&#xbf;" horiz-adv-x="601" 
d="M333 534q0 -52 -9 -89.5t-22.5 -66.5t-29.5 -53t-29.5 -49t-22.5 -54.5t-9 -69.5q0 -36 7.5 -61t20.5 -40.5t29 -22t33 -6.5q24 0 40.5 11.5t27 30.5t16 43t5.5 49q0 23 -4 45.5t-11 40.5t-17.5 30t-23.5 15v8q45 17 87.5 15.5t75 -19.5t52 -50.5t19.5 -78.5
q0 -45 -25 -77.5t-65 -52.5t-88.5 -29.5t-96.5 -9.5q-49 0 -96 11.5t-83.5 34t-58.5 57.5t-22 81q0 44 20.5 73t51.5 51.5t67 42t67 45t51.5 60t20.5 85.5h22zM387 647q0 29 -20 49t-49 20t-49.5 -20t-20.5 -49t20.5 -49.5t49.5 -20.5t49 20.5t20 49.5z" />
    <glyph glyph-name="Agrave" unicode="&#xc0;" horiz-adv-x="1102" 
d="M24 172q8 -16 19 -26t34 -10q34 0 69.5 20.5t74.5 50t84 62.5t99 58l246 656h22l408 -1046q8 -21 23.5 -36t26.5 -20v-8h-267v8q11 5 21 19.5t2 36.5l-96 251q-10 19 -26 38t-38 34.5t-50 25.5t-64 10q-55 0 -112 -29t-116 -66l-100 -264q-8 -21 -2.5 -36t16.5 -20v-8
h-90v8q14 5 28 19t22 37l91 242q-55 -33 -109.5 -59t-108.5 -26q-12 0 -30 2t-35 10t-30 23.5t-16 41.5zM437 340q32 12 67.5 19t74.5 7q66 0 109.5 -28.5t68.5 -64.5l-174 452zM652 1058l-86 89q-40 40 -40 52q0 3 5 8.5t12 11t14.5 9t12.5 3.5q3 0 13.5 -15t21.5 -38
l56 -113z" />
    <glyph glyph-name="Aacute" unicode="&#xc1;" horiz-adv-x="1102" 
d="M24 172q8 -16 19 -26t34 -10q34 0 69.5 20.5t74.5 50t84 62.5t99 58l246 656h22l408 -1046q8 -21 23.5 -36t26.5 -20v-8h-267v8q11 5 21 19.5t2 36.5l-96 251q-10 19 -26 38t-38 34.5t-50 25.5t-64 10q-55 0 -112 -29t-116 -66l-100 -264q-8 -21 -2.5 -36t16.5 -20v-8
h-90v8q14 5 28 19t22 37l91 242q-55 -33 -109.5 -59t-108.5 -26q-12 0 -30 2t-35 10t-30 23.5t-16 41.5zM437 340q32 12 67.5 19t74.5 7q66 0 109.5 -28.5t68.5 -64.5l-174 452zM715 1178q11 23 21.5 38t13.5 15q5 0 12.5 -3.5t14.5 -9t12 -11t5 -8.5q0 -12 -40 -52l-86 -89
l-9 7z" />
    <glyph glyph-name="Acircumflex" unicode="&#xc2;" horiz-adv-x="1102" 
d="M24 172q8 -16 19 -26t34 -10q34 0 69.5 20.5t74.5 50t84 62.5t99 58l246 656h22l408 -1046q8 -21 23.5 -36t26.5 -20v-8h-267v8q11 5 21 19.5t2 36.5l-96 251q-10 19 -26 38t-38 34.5t-50 25.5t-64 10q-55 0 -112 -29t-116 -66l-100 -264q-8 -21 -2.5 -36t16.5 -20v-8
h-90v8q14 5 28 19t22 37l91 242q-55 -33 -109.5 -59t-108.5 -26q-12 0 -30 2t-35 10t-30 23.5t-16 41.5zM437 340q32 12 67.5 19t74.5 7q66 0 109.5 -28.5t68.5 -64.5l-174 452zM565 1039l75 174q2 5 8.5 13.5t16.5 8.5q9 0 14.5 -5.5t10.5 -17.5l74 -173l-7 -7l-92 126
l-92 -126z" />
    <glyph glyph-name="Atilde" unicode="&#xc3;" horiz-adv-x="1102" 
d="M24 172q8 -16 19 -26t34 -10q34 0 69.5 20.5t74.5 50t84 62.5t99 58l246 656h22l408 -1046q8 -21 23.5 -36t26.5 -20v-8h-267v8q11 5 21 19.5t2 36.5l-96 251q-10 19 -26 38t-38 34.5t-50 25.5t-64 10q-55 0 -112 -29t-116 -66l-100 -264q-8 -21 -2.5 -36t16.5 -20v-8
h-90v8q14 5 28 19t22 37l91 242q-55 -33 -109.5 -59t-108.5 -26q-12 0 -30 2t-35 10t-30 23.5t-16 41.5zM437 340q32 12 67.5 19t74.5 7q66 0 109.5 -28.5t68.5 -64.5l-174 452zM531 1085q0 51 20 82.5t52 31.5q22 0 44 -10t43.5 -21.5t43.5 -21.5t44 -10q21 0 34 16.5
t13 43.5h13q0 -51 -21 -81.5t-55 -30.5q-22 0 -44 10t-44 21.5t-43.5 21.5t-44.5 10q-19 0 -30.5 -17t-11.5 -45h-13z" />
    <glyph glyph-name="Adieresis" unicode="&#xc4;" horiz-adv-x="1102" 
d="M24 172q8 -16 19 -26t34 -10q34 0 69.5 20.5t74.5 50t84 62.5t99 58l246 656h22l408 -1046q8 -21 23.5 -36t26.5 -20v-8h-267v8q11 5 21 19.5t2 36.5l-96 251q-10 19 -26 38t-38 34.5t-50 25.5t-64 10q-55 0 -112 -29t-116 -66l-100 -264q-8 -21 -2.5 -36t16.5 -20v-8
h-90v8q14 5 28 19t22 37l91 242q-55 -33 -109.5 -59t-108.5 -26q-12 0 -30 2t-35 10t-30 23.5t-16 41.5zM437 340q32 12 67.5 19t74.5 7q66 0 109.5 -28.5t68.5 -64.5l-174 452zM568 1060q-21 0 -34 13t-13 34q0 22 13 35t34 13q22 0 35 -13t13 -35q0 -21 -13 -34t-35 -13z
M756 1060q-22 0 -35 13t-13 34q0 22 13 35t35 13q21 0 34 -13t13 -35q0 -21 -13 -34t-34 -13z" />
    <glyph glyph-name="Aring" unicode="&#xc5;" horiz-adv-x="1102" 
d="M24 172q8 -16 19 -26t34 -10q34 0 69.5 20.5t74.5 50t84 62.5t99 58l246 656h22l408 -1046q8 -21 23.5 -36t26.5 -20v-8h-267v8q11 5 21 19.5t2 36.5l-96 251q-10 19 -26 38t-38 34.5t-50 25.5t-64 10q-55 0 -112 -29t-116 -66l-100 -264q-8 -21 -2.5 -36t16.5 -20v-8
h-90v8q14 5 28 19t22 37l91 242q-55 -33 -109.5 -59t-108.5 -26q-12 0 -30 2t-35 10t-30 23.5t-16 41.5zM437 340q32 12 67.5 19t74.5 7q66 0 109.5 -28.5t68.5 -64.5l-174 452zM585 1137q0 33 20.5 53t53.5 20q34 0 54.5 -20t20.5 -53q0 -29 -22 -50.5t-53 -21.5
q-30 0 -52 21.5t-22 50.5zM659 1087q21 0 35.5 15t14.5 36q0 23 -13.5 37t-36.5 14t-36 -14t-13 -37q0 -21 14.5 -36t34.5 -15z" />
    <glyph glyph-name="Ccedilla" unicode="&#xc7;" horiz-adv-x="614" 
d="M588 975q36 0 73.5 -7t71.5 -17t61.5 -19.5t43.5 -14.5q9 -3 18 -2t15 4q8 2 15 7h6v-186h-6q-13 36 -36.5 72.5t-59.5 66.5t-86.5 49t-117.5 19q-84 0 -153.5 -37t-119.5 -108.5t-77.5 -175t-27.5 -236.5q0 -129 32 -239t92.5 -190t149 -125.5t201.5 -45.5
q64 0 117.5 13.5t96 33.5t73.5 42.5t49 40.5l7 -8q-15 -15 -45 -40.5t-76.5 -50t-110 -43t-146.5 -18.5h-22l-30 -50q18 9 41.5 8.5t45 -8.5t36 -24.5t14.5 -40.5q0 -39 -28.5 -62.5t-76.5 -23.5q-26 0 -52 7t-41 18l3 9q8 -5 24.5 -8t36.5 -3q27 0 42 18.5t17.5 40.5
t-8 40.5t-35.5 18.5q-12 0 -21 -4t-23 -11l-5 2l33 74q-151 9 -261.5 66.5t-182 145t-106 196t-34.5 217.5q0 122 41.5 229t117 187t181 126.5t233.5 46.5z" />
    <glyph glyph-name="Egrave" unicode="&#xc8;" horiz-adv-x="672" 
d="M295 0q90 -12 175.5 -43t170 -64t169 -58.5t173.5 -25.5q72 0 126 15t92 37t62 47t36 45l2 -3q-4 -12 -22 -46.5t-60 -71t-112 -65t-178 -28.5q-104 0 -191 17t-161.5 42.5t-138 55.5t-120.5 55.5t-108.5 42.5t-102.5 17q-36 0 -55 -10.5t-33 -26.5l-4 2q4 24 26.5 42
t51.5 24q10 2 17 12.5t7 30.5v792q0 24 -11.5 37.5t-22.5 19.5l1 8h639l19 -126h-8q-2 6 -9.5 22t-18 33t-23 30t-24.5 13h-364v-872zM566 439q-2 6 -5 21.5t-8 32t-13 29t-20 12.5h-236l1 14l-1 14h236q12 0 20 12.5t13 29t8 32t5 21.5h8v-218h-8zM417 1002l-86 89
q-40 40 -40 52q0 3 5 8.5t12 11t14.5 9t12.5 3.5q3 0 13.5 -15t21.5 -38l56 -113z" />
    <glyph glyph-name="Eacute" unicode="&#xc9;" horiz-adv-x="623" 
d="M246 0q90 -12 175.5 -43t170 -64t169 -58.5t173.5 -25.5q72 0 126 15t92 37t62 47t36 45l2 -3q-4 -12 -22 -46.5t-60 -71t-112 -65t-178 -28.5q-104 0 -191 17t-161.5 42.5t-138 55.5t-120.5 55.5t-108.5 42.5t-102.5 17q-36 0 -55 -10.5t-33 -26.5l-4 2q4 24 26.5 42
t51.5 24q10 2 17 12.5t7 30.5v792q0 24 -11.5 37.5t-22.5 19.5l1 8h639l19 -126h-8q-2 6 -9.5 22t-18 33t-23 30t-24.5 13h-364v-872zM517 439q-2 6 -5 21.5t-8 32t-13 29t-20 12.5h-236l1 14l-1 14h236q12 0 20 12.5t13 29t8 32t5 21.5h8v-218h-8zM431 1122q11 23 21.5 38
t13.5 15q5 0 12.5 -3.5t14.5 -9t12 -11t5 -8.5q0 -12 -40 -52l-86 -89l-9 7z" />
    <glyph glyph-name="Ecircumflex" unicode="&#xca;" horiz-adv-x="623" 
d="M246 0q90 -12 175.5 -43t170 -64t169 -58.5t173.5 -25.5q72 0 126 15t92 37t62 47t36 45l2 -3q-4 -12 -22 -46.5t-60 -71t-112 -65t-178 -28.5q-104 0 -191 17t-161.5 42.5t-138 55.5t-120.5 55.5t-108.5 42.5t-102.5 17q-36 0 -55 -10.5t-33 -26.5l-4 2q4 24 26.5 42
t51.5 24q10 2 17 12.5t7 30.5v792q0 24 -11.5 37.5t-22.5 19.5l1 8h639l19 -126h-8q-2 6 -9.5 22t-18 33t-23 30t-24.5 13h-364v-872zM517 439q-2 6 -5 21.5t-8 32t-13 29t-20 12.5h-236l1 14l-1 14h236q12 0 20 12.5t13 29t8 32t5 21.5h8v-218h-8zM281 983l75 174
q2 5 8.5 13.5t16.5 8.5q9 0 14.5 -5.5t10.5 -17.5l74 -173l-7 -7l-92 126l-92 -126z" />
    <glyph glyph-name="Edieresis" unicode="&#xcb;" horiz-adv-x="623" 
d="M246 0q90 -12 175.5 -43t170 -64t169 -58.5t173.5 -25.5q72 0 126 15t92 37t62 47t36 45l2 -3q-4 -12 -22 -46.5t-60 -71t-112 -65t-178 -28.5q-104 0 -191 17t-161.5 42.5t-138 55.5t-120.5 55.5t-108.5 42.5t-102.5 17q-36 0 -55 -10.5t-33 -26.5l-4 2q4 24 26.5 42
t51.5 24q10 2 17 12.5t7 30.5v792q0 24 -11.5 37.5t-22.5 19.5l1 8h639l19 -126h-8q-2 6 -9.5 22t-18 33t-23 30t-24.5 13h-364v-872zM517 439q-2 6 -5 21.5t-8 32t-13 29t-20 12.5h-236l1 14l-1 14h236q12 0 20 12.5t13 29t8 32t5 21.5h8v-218h-8zM284 1004q-21 0 -34 13
t-13 34q0 22 13 35t34 13q22 0 35 -13t13 -35q0 -21 -13 -34t-35 -13zM472 1004q-22 0 -35 13t-13 34q0 22 13 35t35 13q21 0 34 -13t13 -35q0 -21 -13 -34t-34 -13z" />
    <glyph glyph-name="Igrave" unicode="&#xcc;" 
d="M294 900v-8q-11 -5 -22 -19t-11 -37v-898q0 -24 11 -37.5t22 -19.5v-8h-244v8q11 6 22 19.5t11 37.5v898q0 23 -11 37t-22 19v8h244zM166 1002l-86 89q-40 40 -40 52q0 3 5 8.5t12 11t14.5 9t12.5 3.5q3 0 13.5 -15t21.5 -38l56 -113z" />
    <glyph glyph-name="Iacute" unicode="&#xcd;" 
d="M294 900v-8q-11 -5 -22 -19t-11 -37v-898q0 -24 11 -37.5t22 -19.5v-8h-244v8q11 6 22 19.5t11 37.5v898q0 23 -11 37t-22 19v8h244zM229 1122q11 23 21.5 38t13.5 15q5 0 12.5 -3.5t14.5 -9t12 -11t5 -8.5q0 -12 -40 -52l-86 -89l-9 7z" />
    <glyph glyph-name="Icircumflex" unicode="&#xce;" 
d="M294 900v-8q-11 -5 -22 -19t-11 -37v-898q0 -24 11 -37.5t22 -19.5v-8h-244v8q11 6 22 19.5t11 37.5v898q0 23 -11 37t-22 19v8h244zM79 983l75 174q2 5 8.5 13.5t16.5 8.5q9 0 14.5 -5.5t10.5 -17.5l74 -173l-7 -7l-92 126l-92 -126z" />
    <glyph glyph-name="Idieresis" unicode="&#xcf;" 
d="M294 900v-8q-11 -5 -22 -19t-11 -37v-898q0 -24 11 -37.5t22 -19.5v-8h-244v8q11 6 22 19.5t11 37.5v898q0 23 -11 37t-22 19v8h244zM82 1004q-21 0 -34 13t-13 34q0 22 13 35t34 13q22 0 35 -13t13 -35q0 -21 -13 -34t-35 -13zM270 1004q-22 0 -35 13t-13 34q0 22 13 35
t35 13q21 0 34 -13t13 -35q0 -21 -13 -34t-34 -13z" />
    <glyph glyph-name="Ntilde" unicode="&#xd1;" horiz-adv-x="774" 
d="M651 -127l-541 880v-816q0 -25 11 -37.5t22 -18.5v-8h-93v8q11 6 22 19.5t11 36.5v899q0 23 -11 36.5t-22 19.5v8h172l442 -688v624q0 24 -11 37t-22 19v8h93v-8q-11 -6 -22 -19.5t-11 -36.5v-963h-40zM299 1029q0 51 20 82.5t52 31.5q22 0 44 -10t43.5 -21.5t43.5 -21.5
t44 -10q21 0 34 16.5t13 43.5h13q0 -51 -21 -81.5t-55 -30.5q-22 0 -44 10t-44 21.5t-43.5 21.5t-44.5 10q-19 0 -30.5 -17t-11.5 -45h-13z" />
    <glyph glyph-name="Ograve" unicode="&#xd2;" horiz-adv-x="1270" 
d="M635 959q126 0 236 -47t191 -129t128 -193t47 -238t-47 -238t-128 -193t-191 -129t-236 -47t-236 47t-191 129t-128 193t-47 238t47 238t128 193t191 129t236 47zM635 -234q105 0 181.5 49.5t126.5 130.5t74.5 184.5t25.5 212.5q1 111 -22.5 217.5t-73.5 190.5
t-127.5 135t-184.5 51q-105 0 -182 -50t-127.5 -131.5t-74.5 -186t-24 -214.5t24 -216t74 -189t127 -133.5t183 -50.5zM627 1058l-86 89q-40 40 -40 52q0 3 5 8.5t12 11t14.5 9t12.5 3.5q3 0 13.5 -15t21.5 -38l56 -113z" />
    <glyph glyph-name="Oacute" unicode="&#xd3;" horiz-adv-x="1270" 
d="M635 959q126 0 236 -47t191 -129t128 -193t47 -238t-47 -238t-128 -193t-191 -129t-236 -47t-236 47t-191 129t-128 193t-47 238t47 238t128 193t191 129t236 47zM635 -234q105 0 181.5 49.5t126.5 130.5t74.5 184.5t25.5 212.5q1 111 -22.5 217.5t-73.5 190.5
t-127.5 135t-184.5 51q-105 0 -182 -50t-127.5 -131.5t-74.5 -186t-24 -214.5t24 -216t74 -189t127 -133.5t183 -50.5zM690 1178q11 23 21.5 38t13.5 15q5 0 12.5 -3.5t14.5 -9t12 -11t5 -8.5q0 -12 -40 -52l-86 -89l-9 7z" />
    <glyph glyph-name="Ocircumflex" unicode="&#xd4;" horiz-adv-x="1270" 
d="M635 959q126 0 236 -47t191 -129t128 -193t47 -238t-47 -238t-128 -193t-191 -129t-236 -47t-236 47t-191 129t-128 193t-47 238t47 238t128 193t191 129t236 47zM635 -234q105 0 181.5 49.5t126.5 130.5t74.5 184.5t25.5 212.5q1 111 -22.5 217.5t-73.5 190.5
t-127.5 135t-184.5 51q-105 0 -182 -50t-127.5 -131.5t-74.5 -186t-24 -214.5t24 -216t74 -189t127 -133.5t183 -50.5zM540 1039l75 174q2 5 8.5 13.5t16.5 8.5q9 0 14.5 -5.5t10.5 -17.5l74 -173l-7 -7l-92 126l-92 -126z" />
    <glyph glyph-name="Otilde" unicode="&#xd5;" horiz-adv-x="1270" 
d="M635 959q126 0 236 -47t191 -129t128 -193t47 -238t-47 -238t-128 -193t-191 -129t-236 -47t-236 47t-191 129t-128 193t-47 238t47 238t128 193t191 129t236 47zM635 -234q105 0 181.5 49.5t126.5 130.5t74.5 184.5t25.5 212.5q1 111 -22.5 217.5t-73.5 190.5
t-127.5 135t-184.5 51q-105 0 -182 -50t-127.5 -131.5t-74.5 -186t-24 -214.5t24 -216t74 -189t127 -133.5t183 -50.5zM506 1085q0 51 20 82.5t52 31.5q22 0 44 -10t43.5 -21.5t43.5 -21.5t44 -10q21 0 34 16.5t13 43.5h13q0 -51 -21 -81.5t-55 -30.5q-22 0 -44 10t-44 21.5
t-43.5 21.5t-44.5 10q-19 0 -30.5 -17t-11.5 -45h-13z" />
    <glyph glyph-name="Odieresis" unicode="&#xd6;" horiz-adv-x="1270" 
d="M635 959q126 0 236 -47t191 -129t128 -193t47 -238t-47 -238t-128 -193t-191 -129t-236 -47t-236 47t-191 129t-128 193t-47 238t47 238t128 193t191 129t236 47zM635 -234q105 0 181.5 49.5t126.5 130.5t74.5 184.5t25.5 212.5q1 111 -22.5 217.5t-73.5 190.5
t-127.5 135t-184.5 51q-105 0 -182 -50t-127.5 -131.5t-74.5 -186t-24 -214.5t24 -216t74 -189t127 -133.5t183 -50.5zM543 1060q-21 0 -34 13t-13 34q0 22 13 35t34 13q22 0 35 -13t13 -35q0 -21 -13 -34t-35 -13zM731 1060q-22 0 -35 13t-13 34q0 22 13 35t35 13
q21 0 34 -13t13 -35q0 -21 -13 -34t-34 -13z" />
    <glyph glyph-name="Ugrave" unicode="&#xd9;" horiz-adv-x="808" 
d="M758 892q-11 -7 -22 -20t-11 -37v-794q0 -60 -21.5 -107t-62 -79.5t-98.5 -49.5t-131 -17q-67 0 -126.5 16.5t-104.5 48.5t-71 79.5t-26 110.5v792q0 24 -10.5 36.5t-23.5 20.5v8h244v-8q-12 -8 -22 -19.5t-10 -34.5v-782q0 -65 18 -109.5t47.5 -72t67 -40t77.5 -12.5
q42 0 82 13.5t72 40.5t51.5 66.5t19.5 90.5v803q0 23 -11 35.5t-22 20.5v8h94v-8zM431 1002l-86 89q-40 40 -40 52q0 3 5 8.5t12 11t14.5 9t12.5 3.5q3 0 13.5 -15t21.5 -38l56 -113z" />
    <glyph glyph-name="Uacute" unicode="&#xda;" horiz-adv-x="808" 
d="M758 892q-11 -7 -22 -20t-11 -37v-794q0 -60 -21.5 -107t-62 -79.5t-98.5 -49.5t-131 -17q-67 0 -126.5 16.5t-104.5 48.5t-71 79.5t-26 110.5v792q0 24 -10.5 36.5t-23.5 20.5v8h244v-8q-12 -8 -22 -19.5t-10 -34.5v-782q0 -65 18 -109.5t47.5 -72t67 -40t77.5 -12.5
q42 0 82 13.5t72 40.5t51.5 66.5t19.5 90.5v803q0 23 -11 35.5t-22 20.5v8h94v-8zM494 1122q11 23 21.5 38t13.5 15q5 0 12.5 -3.5t14.5 -9t12 -11t5 -8.5q0 -12 -40 -52l-86 -89l-9 7z" />
    <glyph glyph-name="Ucircumflex" unicode="&#xdb;" horiz-adv-x="808" 
d="M758 892q-11 -7 -22 -20t-11 -37v-794q0 -60 -21.5 -107t-62 -79.5t-98.5 -49.5t-131 -17q-67 0 -126.5 16.5t-104.5 48.5t-71 79.5t-26 110.5v792q0 24 -10.5 36.5t-23.5 20.5v8h244v-8q-12 -8 -22 -19.5t-10 -34.5v-782q0 -65 18 -109.5t47.5 -72t67 -40t77.5 -12.5
q42 0 82 13.5t72 40.5t51.5 66.5t19.5 90.5v803q0 23 -11 35.5t-22 20.5v8h94v-8zM344 983l75 174q2 5 8.5 13.5t16.5 8.5q9 0 14.5 -5.5t10.5 -17.5l74 -173l-7 -7l-92 126l-92 -126z" />
    <glyph glyph-name="Udieresis" unicode="&#xdc;" horiz-adv-x="808" 
d="M758 892q-11 -7 -22 -20t-11 -37v-794q0 -60 -21.5 -107t-62 -79.5t-98.5 -49.5t-131 -17q-67 0 -126.5 16.5t-104.5 48.5t-71 79.5t-26 110.5v792q0 24 -10.5 36.5t-23.5 20.5v8h244v-8q-12 -8 -22 -19.5t-10 -34.5v-782q0 -65 18 -109.5t47.5 -72t67 -40t77.5 -12.5
q42 0 82 13.5t72 40.5t51.5 66.5t19.5 90.5v803q0 23 -11 35.5t-22 20.5v8h94v-8zM347 1004q-21 0 -34 13t-13 34q0 22 13 35t34 13q22 0 35 -13t13 -35q0 -21 -13 -34t-35 -13zM535 1004q-22 0 -35 13t-13 34q0 22 13 35t35 13q21 0 34 -13t13 -35q0 -21 -13 -34t-34 -13z
" />
    <glyph glyph-name="Yacute" unicode="&#xdd;" horiz-adv-x="786" 
d="M688 900h98v-8q-14 -6 -31.5 -18t-31.5 -38l-227 -409v-490q0 -23 11 -36.5t22 -19.5v-8h-244v8q11 6 22 19.5t11 36.5v469l-254 430q-14 24 -31.5 37t-32.5 19v8h246v-8q-7 -6 -6.5 -19.5t14.5 -36.5l226 -391l217 392q7 13 8 22t-1.5 15.5t-7 10.5t-8.5 7v8zM494 1122
q11 23 21.5 38t13.5 15q5 0 12.5 -3.5t14.5 -9t12 -11t5 -8.5q0 -12 -40 -52l-86 -89l-9 7z" />
    <glyph glyph-name="Thorn" unicode="&#xde;" horiz-adv-x="670" 
d="M374 589q73 0 123 -17t81 -46.5t45 -69t14 -84.5t-13.5 -84.5t-44 -69t-79.5 -46.5t-121 -17h-118v-91q0 -23 11 -36.5t22 -19.5v-8h-244v8q33 19 33 56v572q0 23 -11 36.5t-22 19.5v8h244v-8q-11 -6 -22 -19.5t-11 -36.5v-47h113zM261 183q39 2 74.5 17t63 40t44 59
t16.5 73q0 40 -13 74.5t-38 60t-62 40t-85 14.5v-378z" />
    <glyph glyph-name="agrave" unicode="&#xe0;" horiz-adv-x="704" 
d="M0 8q14 5 27 19.5t23 36.5l285 656h46l271 -656q8 -18 24.5 -34.5t27.5 -21.5v-8h-267v8q11 5 21 21.5t2 34.5l-58 142h-259l-62 -142q-10 -23 -3.5 -37t17.5 -19v-8h-95v8zM155 234h235l-114 277zM346 795l-86 89q-40 40 -40 52q0 3 5 8.5t12 11t14.5 9t12.5 3.5
q3 0 13.5 -15t21.5 -38l56 -113z" />
    <glyph glyph-name="aacute" unicode="&#xe1;" horiz-adv-x="704" 
d="M0 8q14 5 27 19.5t23 36.5l285 656h46l271 -656q8 -18 24.5 -34.5t27.5 -21.5v-8h-267v8q11 5 21 21.5t2 34.5l-58 142h-259l-62 -142q-10 -23 -3.5 -37t17.5 -19v-8h-95v8zM155 234h235l-114 277zM409 915q11 23 21.5 38t13.5 15q5 0 12.5 -3.5t14.5 -9t12 -11t5 -8.5
q0 -12 -40 -52l-86 -89l-9 7z" />
    <glyph glyph-name="acircumflex" unicode="&#xe2;" horiz-adv-x="704" 
d="M0 8q14 5 27 19.5t23 36.5l285 656h46l271 -656q8 -18 24.5 -34.5t27.5 -21.5v-8h-267v8q11 5 21 21.5t2 34.5l-58 142h-259l-62 -142q-10 -23 -3.5 -37t17.5 -19v-8h-95v8zM155 234h235l-114 277zM259 776l75 174q2 5 8.5 13.5t16.5 8.5q9 0 14.5 -5.5t10.5 -17.5
l74 -173l-7 -7l-92 126l-92 -126z" />
    <glyph glyph-name="atilde" unicode="&#xe3;" horiz-adv-x="704" 
d="M0 8q14 5 27 19.5t23 36.5l285 656h46l271 -656q8 -18 24.5 -34.5t27.5 -21.5v-8h-267v8q11 5 21 21.5t2 34.5l-58 142h-259l-62 -142q-10 -23 -3.5 -37t17.5 -19v-8h-95v8zM155 234h235l-114 277zM225 822q0 51 20 82.5t52 31.5q22 0 44 -10t43.5 -21.5t43.5 -21.5
t44 -10q21 0 34 16.5t13 43.5h13q0 -51 -21 -81.5t-55 -30.5q-22 0 -44 10t-44 21.5t-43.5 21.5t-44.5 10q-19 0 -30.5 -17t-11.5 -45h-13z" />
    <glyph glyph-name="adieresis" unicode="&#xe4;" horiz-adv-x="704" 
d="M0 8q14 5 27 19.5t23 36.5l285 656h46l271 -656q8 -18 24.5 -34.5t27.5 -21.5v-8h-267v8q11 5 21 21.5t2 34.5l-58 142h-259l-62 -142q-10 -23 -3.5 -37t17.5 -19v-8h-95v8zM155 234h235l-114 277zM262 797q-21 0 -34 13t-13 34q0 22 13 35t34 13q22 0 35 -13t13 -35
q0 -21 -13 -34t-35 -13zM450 797q-22 0 -35 13t-13 34q0 22 13 35t35 13q21 0 34 -13t13 -35q0 -21 -13 -34t-34 -13z" />
    <glyph glyph-name="aring" unicode="&#xe5;" horiz-adv-x="704" 
d="M0 8q14 5 27 19.5t23 36.5l285 656h46l271 -656q8 -18 24.5 -34.5t27.5 -21.5v-8h-267v8q11 5 21 21.5t2 34.5l-58 142h-259l-62 -142q-10 -23 -3.5 -37t17.5 -19v-8h-95v8zM155 234h235l-114 277zM279 874q0 33 20.5 53t53.5 20q34 0 54.5 -20t20.5 -53q0 -29 -22 -50.5
t-53 -21.5q-30 0 -52 21.5t-22 50.5zM353 824q21 0 35.5 15t14.5 36q0 23 -13.5 37t-36.5 14t-36 -14t-13 -37q0 -21 14.5 -36t34.5 -15z" />
    <glyph glyph-name="ae" unicode="&#xe6;" horiz-adv-x="858" 
d="M803 700l18 -155h-8q-2 6 -9.5 26.5t-18 43t-23 40t-24.5 17.5h-205v-244h137q12 0 20 12.5t13 29t8 32t5 21.5h8v-218h-8q-2 6 -5 21.5t-8 32t-13 29t-20 12.5h-137v-372h222q12 0 24.5 17.5t23 40t18 43t9.5 26.5h8l-18 -155h-498v8q11 6 22 19.5t11 36.5v608h-12
l-188 -438h230l12 -28h-254l-62 -142q-10 -23 -3.5 -37t17.5 -19v-8h-95v8q14 5 27.5 19.5t22.5 36.5l248 572q9 20 3 35.5t-17 20.5v8h519z" />
    <glyph glyph-name="ccedilla" unicode="&#xe7;" horiz-adv-x="652" 
d="M33 351q0 175 98 264t288 94q48 1 92.5 -10.5t74.5 -23.5q9 5 15 11.5t10 13.5h8v-165h-7q-26 72 -76.5 109t-116.5 37q-50 0 -88.5 -23.5t-64.5 -66.5t-39.5 -103t-13.5 -133q0 -76 13.5 -137.5t39.5 -105t64.5 -67.5t88.5 -24q66 0 116.5 37t76.5 109h7v-157h-8
q-7 12 -17 21q-29 -13 -74.5 -26t-94.5 -12l-32 -54q18 9 41.5 8.5t45 -8.5t36 -24.5t14.5 -40.5q0 -39 -28.5 -62.5t-76.5 -23.5q-26 0 -52 7t-41 18l3 9q8 -5 24.5 -8t36.5 -3q27 0 42 18.5t17.5 40.5t-8 40.5t-35.5 18.5q-12 0 -21 -4t-23 -11l-5 2l35 78
q-180 9 -272.5 98t-92.5 259z" />
    <glyph glyph-name="egrave" unicode="&#xe8;" horiz-adv-x="586" 
d="M50 0v8q11 6 22 19.5t11 36.5v572q0 23 -11 36.5t-22 19.5v8h481l18 -155h-8q-2 6 -9.5 26.5t-18 43t-23 40t-24.5 17.5h-205v-244h137q12 0 20 12.5t13 29t8 32t5 21.5h8v-218h-8q-2 6 -5 21.5t-8 32t-13 29t-20 12.5h-137v-372h222q12 0 24.5 17.5t23 40t18 43
t9.5 26.5h8l-18 -155h-498zM298 795l-86 89q-40 40 -40 52q0 3 5 8.5t12 11t14.5 9t12.5 3.5q3 0 13.5 -15t21.5 -38l56 -113z" />
    <glyph glyph-name="eacute" unicode="&#xe9;" horiz-adv-x="586" 
d="M50 0v8q11 6 22 19.5t11 36.5v572q0 23 -11 36.5t-22 19.5v8h481l18 -155h-8q-2 6 -9.5 26.5t-18 43t-23 40t-24.5 17.5h-205v-244h137q12 0 20 12.5t13 29t8 32t5 21.5h8v-218h-8q-2 6 -5 21.5t-8 32t-13 29t-20 12.5h-137v-372h222q12 0 24.5 17.5t23 40t18 43
t9.5 26.5h8l-18 -155h-498zM361 915q11 23 21.5 38t13.5 15q5 0 12.5 -3.5t14.5 -9t12 -11t5 -8.5q0 -12 -40 -52l-86 -89l-9 7z" />
    <glyph glyph-name="ecircumflex" unicode="&#xea;" horiz-adv-x="586" 
d="M50 0v8q11 6 22 19.5t11 36.5v572q0 23 -11 36.5t-22 19.5v8h481l18 -155h-8q-2 6 -9.5 26.5t-18 43t-23 40t-24.5 17.5h-205v-244h137q12 0 20 12.5t13 29t8 32t5 21.5h8v-218h-8q-2 6 -5 21.5t-8 32t-13 29t-20 12.5h-137v-372h222q12 0 24.5 17.5t23 40t18 43
t9.5 26.5h8l-18 -155h-498zM211 776l75 174q2 5 8.5 13.5t16.5 8.5q9 0 14.5 -5.5t10.5 -17.5l74 -173l-7 -7l-92 126l-92 -126z" />
    <glyph glyph-name="edieresis" unicode="&#xeb;" horiz-adv-x="586" 
d="M50 0v8q11 6 22 19.5t11 36.5v572q0 23 -11 36.5t-22 19.5v8h481l18 -155h-8q-2 6 -9.5 26.5t-18 43t-23 40t-24.5 17.5h-205v-244h137q12 0 20 12.5t13 29t8 32t5 21.5h8v-218h-8q-2 6 -5 21.5t-8 32t-13 29t-20 12.5h-137v-372h222q12 0 24.5 17.5t23 40t18 43
t9.5 26.5h8l-18 -155h-498zM214 797q-21 0 -34 13t-13 34q0 22 13 35t34 13q22 0 35 -13t13 -35q0 -21 -13 -34t-35 -13zM402 797q-22 0 -35 13t-13 34q0 22 13 35t35 13q21 0 34 -13t13 -35q0 -21 -13 -34t-34 -13z" />
    <glyph glyph-name="igrave" unicode="&#xec;" 
d="M50 8q11 6 22 19.5t11 36.5v572q0 23 -11 36.5t-22 19.5v8h244v-8q-11 -6 -22 -19.5t-11 -36.5v-572q0 -23 11 -36.5t22 -19.5v-8h-244v8zM160 795l-86 89q-40 40 -40 52q0 3 5 8.5t12 11t14.5 9t12.5 3.5q3 0 13.5 -15t21.5 -38l56 -113z" />
    <glyph glyph-name="iacute" unicode="&#xed;" 
d="M50 8q11 6 22 19.5t11 36.5v572q0 23 -11 36.5t-22 19.5v8h244v-8q-11 -6 -22 -19.5t-11 -36.5v-572q0 -23 11 -36.5t22 -19.5v-8h-244v8zM223 915q11 23 21.5 38t13.5 15q5 0 12.5 -3.5t14.5 -9t12 -11t5 -8.5q0 -12 -40 -52l-86 -89l-9 7z" />
    <glyph glyph-name="icircumflex" unicode="&#xee;" 
d="M50 8q11 6 22 19.5t11 36.5v572q0 23 -11 36.5t-22 19.5v8h244v-8q-11 -6 -22 -19.5t-11 -36.5v-572q0 -23 11 -36.5t22 -19.5v-8h-244v8zM73 776l75 174q2 5 8.5 13.5t16.5 8.5q9 0 14.5 -5.5t10.5 -17.5l74 -173l-7 -7l-92 126l-92 -126z" />
    <glyph glyph-name="idieresis" unicode="&#xef;" 
d="M50 8q11 6 22 19.5t11 36.5v572q0 23 -11 36.5t-22 19.5v8h244v-8q-11 -6 -22 -19.5t-11 -36.5v-572q0 -23 11 -36.5t22 -19.5v-8h-244v8zM76 797q-21 0 -34 13t-13 34q0 22 13 35t34 13q22 0 35 -13t13 -35q0 -21 -13 -34t-35 -13zM264 797q-22 0 -35 13t-13 34
q0 22 13 35t35 13q21 0 34 -13t13 -35q0 -21 -13 -34t-34 -13z" />
    <glyph glyph-name="ntilde" unicode="&#xf1;" horiz-adv-x="650" 
d="M580 270v366q0 24 -11 37t-22 19v8h93v-8q-11 -6 -22 -19.5t-11 -36.5v-649h-27l-470 495v-418q0 -25 11 -37.5t22 -18.5v-8h-93v8q11 6 22 19.5t11 36.5v572q0 23 -11 36.5t-22 19.5v8h122zM218 822q0 51 20 82.5t52 31.5q22 0 44 -10t43.5 -21.5t43.5 -21.5t44 -10
q21 0 34 16.5t13 43.5h13q0 -51 -21 -81.5t-55 -30.5q-22 0 -44 10t-44 21.5t-43.5 21.5t-44.5 10q-19 0 -30.5 -17t-11.5 -45h-13z" />
    <glyph glyph-name="ograve" unicode="&#xf2;" horiz-adv-x="770" 
d="M385 709q89 0 158 -25.5t116 -72.5t71.5 -113.5t24.5 -148.5t-24.5 -148t-71.5 -112.5t-116 -72t-158 -25.5t-158 25.5t-116 72t-71.5 112.5t-24.5 148t24.5 148.5t71.5 113.5t116 72.5t158 25.5zM385 13q47 0 82.5 30t59.5 78t36.5 109t12.5 123q0 65 -11.5 125
t-35 106.5t-59.5 74.5t-85 28q-47 0 -83 -28.5t-60 -75.5t-36 -106.5t-12 -122.5q0 -64 11.5 -125t35.5 -109t60 -77.5t84 -29.5zM376 795l-86 89q-40 40 -40 52q0 3 5 8.5t12 11t14.5 9t12.5 3.5q3 0 13.5 -15t21.5 -38l56 -113z" />
    <glyph glyph-name="oacute" unicode="&#xf3;" horiz-adv-x="770" 
d="M385 709q89 0 158 -25.5t116 -72.5t71.5 -113.5t24.5 -148.5t-24.5 -148t-71.5 -112.5t-116 -72t-158 -25.5t-158 25.5t-116 72t-71.5 112.5t-24.5 148t24.5 148.5t71.5 113.5t116 72.5t158 25.5zM385 13q47 0 82.5 30t59.5 78t36.5 109t12.5 123q0 65 -11.5 125
t-35 106.5t-59.5 74.5t-85 28q-47 0 -83 -28.5t-60 -75.5t-36 -106.5t-12 -122.5q0 -64 11.5 -125t35.5 -109t60 -77.5t84 -29.5zM439 915q11 23 21.5 38t13.5 15q5 0 12.5 -3.5t14.5 -9t12 -11t5 -8.5q0 -12 -40 -52l-86 -89l-9 7z" />
    <glyph glyph-name="ocircumflex" unicode="&#xf4;" horiz-adv-x="770" 
d="M385 709q89 0 158 -25.5t116 -72.5t71.5 -113.5t24.5 -148.5t-24.5 -148t-71.5 -112.5t-116 -72t-158 -25.5t-158 25.5t-116 72t-71.5 112.5t-24.5 148t24.5 148.5t71.5 113.5t116 72.5t158 25.5zM385 13q47 0 82.5 30t59.5 78t36.5 109t12.5 123q0 65 -11.5 125
t-35 106.5t-59.5 74.5t-85 28q-47 0 -83 -28.5t-60 -75.5t-36 -106.5t-12 -122.5q0 -64 11.5 -125t35.5 -109t60 -77.5t84 -29.5zM289 776l75 174q2 5 8.5 13.5t16.5 8.5q9 0 14.5 -5.5t10.5 -17.5l74 -173l-7 -7l-92 126l-92 -126z" />
    <glyph glyph-name="otilde" unicode="&#xf5;" horiz-adv-x="770" 
d="M385 709q89 0 158 -25.5t116 -72.5t71.5 -113.5t24.5 -148.5t-24.5 -148t-71.5 -112.5t-116 -72t-158 -25.5t-158 25.5t-116 72t-71.5 112.5t-24.5 148t24.5 148.5t71.5 113.5t116 72.5t158 25.5zM385 13q47 0 82.5 30t59.5 78t36.5 109t12.5 123q0 65 -11.5 125
t-35 106.5t-59.5 74.5t-85 28q-47 0 -83 -28.5t-60 -75.5t-36 -106.5t-12 -122.5q0 -64 11.5 -125t35.5 -109t60 -77.5t84 -29.5zM255 822q0 51 20 82.5t52 31.5q22 0 44 -10t43.5 -21.5t43.5 -21.5t44 -10q21 0 34 16.5t13 43.5h13q0 -51 -21 -81.5t-55 -30.5q-22 0 -44 10
t-44 21.5t-43.5 21.5t-44.5 10q-19 0 -30.5 -17t-11.5 -45h-13z" />
    <glyph glyph-name="odieresis" unicode="&#xf6;" horiz-adv-x="770" 
d="M385 709q89 0 158 -25.5t116 -72.5t71.5 -113.5t24.5 -148.5t-24.5 -148t-71.5 -112.5t-116 -72t-158 -25.5t-158 25.5t-116 72t-71.5 112.5t-24.5 148t24.5 148.5t71.5 113.5t116 72.5t158 25.5zM385 13q47 0 82.5 30t59.5 78t36.5 109t12.5 123q0 65 -11.5 125
t-35 106.5t-59.5 74.5t-85 28q-47 0 -83 -28.5t-60 -75.5t-36 -106.5t-12 -122.5q0 -64 11.5 -125t35.5 -109t60 -77.5t84 -29.5zM292 797q-21 0 -34 13t-13 34q0 22 13 35t34 13q22 0 35 -13t13 -35q0 -21 -13 -34t-35 -13zM480 797q-22 0 -35 13t-13 34q0 22 13 35t35 13
q21 0 34 -13t13 -35q0 -21 -13 -34t-34 -13z" />
    <glyph glyph-name="ugrave" unicode="&#xf9;" horiz-adv-x="644" 
d="M594 692q-11 -9 -22 -21t-11 -36v-410q0 -81 -35.5 -132.5t-88.5 -76t-114.5 -23t-114.5 25.5t-88.5 69.5t-35.5 108.5v438q0 24 -10.5 36t-23.5 21v8h244v-8q-11 -9 -21.5 -20t-10.5 -34v-413q0 -57 20 -95t50 -57.5t65.5 -19.5t65.5 19t50 57.5t20 96.5v410
q0 23 -11 35t-22 21v8h94v-8zM330 795l-86 89q-40 40 -40 52q0 3 5 8.5t12 11t14.5 9t12.5 3.5q3 0 13.5 -15t21.5 -38l56 -113z" />
    <glyph glyph-name="uacute" unicode="&#xfa;" horiz-adv-x="644" 
d="M594 692q-11 -9 -22 -21t-11 -36v-410q0 -81 -35.5 -132.5t-88.5 -76t-114.5 -23t-114.5 25.5t-88.5 69.5t-35.5 108.5v438q0 24 -10.5 36t-23.5 21v8h244v-8q-11 -9 -21.5 -20t-10.5 -34v-413q0 -57 20 -95t50 -57.5t65.5 -19.5t65.5 19t50 57.5t20 96.5v410
q0 23 -11 35t-22 21v8h94v-8zM393 915q11 23 21.5 38t13.5 15q5 0 12.5 -3.5t14.5 -9t12 -11t5 -8.5q0 -12 -40 -52l-86 -89l-9 7z" />
    <glyph glyph-name="ucircumflex" unicode="&#xfb;" horiz-adv-x="644" 
d="M594 692q-11 -9 -22 -21t-11 -36v-410q0 -81 -35.5 -132.5t-88.5 -76t-114.5 -23t-114.5 25.5t-88.5 69.5t-35.5 108.5v438q0 24 -10.5 36t-23.5 21v8h244v-8q-11 -9 -21.5 -20t-10.5 -34v-413q0 -57 20 -95t50 -57.5t65.5 -19.5t65.5 19t50 57.5t20 96.5v410
q0 23 -11 35t-22 21v8h94v-8zM243 776l75 174q2 5 8.5 13.5t16.5 8.5q9 0 14.5 -5.5t10.5 -17.5l74 -173l-7 -7l-92 126l-92 -126z" />
    <glyph glyph-name="udieresis" unicode="&#xfc;" horiz-adv-x="644" 
d="M594 692q-11 -9 -22 -21t-11 -36v-410q0 -81 -35.5 -132.5t-88.5 -76t-114.5 -23t-114.5 25.5t-88.5 69.5t-35.5 108.5v438q0 24 -10.5 36t-23.5 21v8h244v-8q-11 -9 -21.5 -20t-10.5 -34v-413q0 -57 20 -95t50 -57.5t65.5 -19.5t65.5 19t50 57.5t20 96.5v410
q0 23 -11 35t-22 21v8h94v-8zM246 797q-21 0 -34 13t-13 34q0 22 13 35t34 13q22 0 35 -13t13 -35q0 -21 -13 -34t-35 -13zM434 797q-22 0 -35 13t-13 34q0 22 13 35t35 13q21 0 34 -13t13 -35q0 -21 -13 -34t-34 -13z" />
    <glyph glyph-name="yacute" unicode="&#xfd;" horiz-adv-x="596" 
d="M246 700v-8q-7 -6 -6.5 -20t14.5 -36l123 -196l123 197q8 13 9 22.5t-1.5 16t-7.5 10.5t-9 6v8h105v-8q-14 -6 -31 -19.5t-32 -36.5l-137 -220v-352q0 -23 11 -36.5t22 -19.5v-8h-244v8q11 6 22 19.5t11 36.5v332l-154 240q-14 23 -31.5 36.5t-32.5 19.5v8h246zM361 915
q11 23 21.5 38t13.5 15q5 0 12.5 -3.5t14.5 -9t12 -11t5 -8.5q0 -12 -40 -52l-86 -89l-9 7z" />
    <glyph glyph-name="ydieresis" unicode="&#xff;" horiz-adv-x="596" 
d="M246 700v-8q-7 -6 -6.5 -20t14.5 -36l123 -196l123 197q8 13 9 22.5t-1.5 16t-7.5 10.5t-9 6v8h105v-8q-14 -6 -31 -19.5t-32 -36.5l-137 -220v-352q0 -23 11 -36.5t22 -19.5v-8h-244v8q11 6 22 19.5t11 36.5v332l-154 240q-14 23 -31.5 36.5t-32.5 19.5v8h246zM214 797
q-21 0 -34 13t-13 34q0 22 13 35t34 13q22 0 35 -13t13 -35q0 -21 -13 -34t-35 -13zM402 797q-22 0 -35 13t-13 34q0 22 13 35t35 13q21 0 34 -13t13 -35q0 -21 -13 -34t-34 -13z" />
    <glyph glyph-name="dotlessi" unicode="&#x131;" 
d="M50 8q11 6 22 19.5t11 36.5v572q0 23 -11 36.5t-22 19.5v8h244v-8q-11 -6 -22 -19.5t-11 -36.5v-572q0 -23 11 -36.5t22 -19.5v-8h-244v8z" />
    <glyph glyph-name="Scaron" unicode="&#x160;" horiz-adv-x="878" 
d="M452 950q36 0 68.5 -7.5t61 -17t51 -19.5t38.5 -15q9 -3 18 -2t15 4q8 2 15 7h6v-213h-6q-13 36 -34 77t-52 76t-71.5 58t-91.5 23q-25 0 -50.5 -8t-45 -23.5t-32 -38.5t-12.5 -53q0 -33 13.5 -61t36.5 -53t53.5 -48t65.5 -47l179 -121q101 -68 152 -155.5t60 -179
t-21.5 -179t-93.5 -156t-155.5 -110.5t-207.5 -42q-106 0 -185 30t-132 79t-81.5 111.5t-32.5 127.5t15.5 127.5t62 111.5t106.5 79t149 30q55 0 107 -15.5t92 -47t64 -77.5t24 -108q0 -46 -17 -91t-50 -80t-81 -56.5t-111 -21.5v9q40 6 69 39t43.5 78.5t12.5 97t-22 95
t-60.5 72t-104.5 28.5q-58 0 -104.5 -25.5t-78 -67t-47 -95t-12.5 -109t26 -109t68.5 -95t115 -67t165.5 -25.5q83 0 145 34.5t100.5 90.5t53 126.5t3 142t-50 137.5t-106.5 113l-168 116q-40 28 -77 57.5t-65 62.5t-44.5 71.5t-16.5 84.5q0 48 16.5 92t50 77.5t83 53.5
t115.5 20zM558 1195l-75 -174q-2 -5 -8.5 -13.5t-16.5 -8.5q-9 0 -14.5 5.5t-10.5 17.5l-74 173l7 7l92 -126l92 126z" />
    <glyph glyph-name="scaron" unicode="&#x161;" horiz-adv-x="487" 
d="M152 312q-55 24 -87 62t-43.5 82t-3 89t36.5 81t74 59t108 24q47 1 90.5 -10.5t73.5 -23.5q8 5 14 11.5t10 13.5h8v-165h-7q-26 72 -76.5 109t-116.5 37q-49 0 -79 -22t-35.5 -53t17 -65t79.5 -58l119 -51q59 -25 93.5 -67.5t46 -91.5t0.5 -99.5t-42 -91t-81 -66
t-118 -25.5q-48 0 -93.5 11t-76.5 23q-9 -5 -15 -11.5t-10 -13.5h-8v165h7q26 -72 78 -109t118 -37q59 0 94 28.5t43.5 67t-11.5 78t-72 61.5zM339 965l-75 -174q-2 -5 -8.5 -13.5t-16.5 -8.5q-9 0 -14.5 5.5t-10.5 17.5l-74 173l7 7l92 -126l92 126z" />
    <glyph glyph-name="Ydieresis" unicode="&#x178;" horiz-adv-x="786" 
d="M688 900h98v-8q-14 -6 -31.5 -18t-31.5 -38l-227 -409v-490q0 -23 11 -36.5t22 -19.5v-8h-244v8q11 6 22 19.5t11 36.5v469l-254 430q-14 24 -31.5 37t-32.5 19v8h246v-8q-7 -6 -6.5 -19.5t14.5 -36.5l226 -391l217 392q7 13 8 22t-1.5 15.5t-7 10.5t-8.5 7v8zM347 1004
q-21 0 -34 13t-13 34q0 22 13 35t34 13q22 0 35 -13t13 -35q0 -21 -13 -34t-35 -13zM535 1004q-22 0 -35 13t-13 34q0 22 13 35t35 13q21 0 34 -13t13 -35q0 -21 -13 -34t-34 -13z" />
    <glyph glyph-name="Zcaron" unicode="&#x17d;" horiz-adv-x="670" 
d="M658 -127h-712v8q14 6 26.5 18t26.5 38l476 935h-309q-12 0 -24.5 -13t-23 -30t-18 -33t-9.5 -22h-8l19 126h608v-8q-31 -13 -53 -56l-476 -935h413q12 0 24.5 13t23 30t18 33t9.5 22h8zM501 1172l-75 -174q-2 -5 -8.5 -13.5t-16.5 -8.5q-9 0 -14.5 5.5t-10.5 17.5
l-74 173l7 7l92 -126l92 126z" />
    <glyph glyph-name="zcaron" unicode="&#x17e;" horiz-adv-x="571" 
d="M16 8q14 6 29.5 21t23.5 35l247 608h-176q-12 0 -24.5 -17.5t-23 -40t-18 -43t-9.5 -26.5h-8l18 155h475v-8q-14 -6 -28.5 -19t-24.5 -37l-247 -608h226q12 0 24.5 17.5t23 40t18 43t9.5 26.5h8l-18 -155h-525v8zM407 965l-75 -174q-2 -5 -8.5 -13.5t-16.5 -8.5
q-9 0 -14.5 5.5t-10.5 17.5l-74 173l7 7l92 -126l92 126z" />
    <glyph glyph-name="circumflex" unicode="&#x2c6;" horiz-adv-x="265" 
d="M33 956l75 174q2 5 8.5 13.5t16.5 8.5q9 0 14.5 -5.5t10.5 -17.5l74 -173l-7 -7l-92 126l-92 -126z" />
    <glyph glyph-name="caron" unicode="&#x2c7;" horiz-adv-x="265" 
d="M232 1145l-75 -174q-2 -5 -8.5 -13.5t-16.5 -8.5q-9 0 -14.5 5.5t-10.5 17.5l-74 173l7 7l92 -126l92 126z" />
    <glyph glyph-name="ring" unicode="&#x2da;" horiz-adv-x="215" 
d="M33 1054q0 33 20.5 53t53.5 20q34 0 54.5 -20t20.5 -53q0 -29 -22 -50.5t-53 -21.5q-30 0 -52 21.5t-22 50.5zM107 1004q21 0 35.5 15t14.5 36q0 23 -13.5 37t-36.5 14t-36 -14t-13 -37q0 -21 14.5 -36t34.5 -15z" />
    <glyph glyph-name="tilde" unicode="&#x2dc;" horiz-adv-x="373" 
d="M33 1002q0 51 20 82.5t52 31.5q22 0 44 -10t43.5 -21.5t43.5 -21.5t44 -10q21 0 34 16.5t13 43.5h13q0 -51 -21 -81.5t-55 -30.5q-22 0 -44 10t-44 21.5t-43.5 21.5t-44.5 10q-19 0 -30.5 -17t-11.5 -45h-13z" />
    <glyph glyph-name="quoteleft" unicode="&#x2018;" horiz-adv-x="210" 
d="M107 466q-43 0 -60.5 32t-11.5 74.5t33.5 86t75.5 66.5l6 -13q-30 -14 -47 -44t-18 -67q5 2 10.5 3t11.5 1q29 0 49.5 -20.5t20.5 -49.5t-20.5 -49t-49.5 -20z" />
    <glyph glyph-name="quoteright" unicode="&#x2019;" horiz-adv-x="210" 
d="M103 725q43 0 60.5 -32t11.5 -74.5t-33.5 -86t-75.5 -66.5l-6 13q30 14 47 44t18 67q-5 -2 -10.5 -3t-11.5 -1q-29 0 -49.5 20.5t-20.5 49.5t20.5 49t49.5 20z" />
    <glyph glyph-name="quotesinglbase" unicode="&#x201a;" horiz-adv-x="250" 
d="M120 132q43 0 60.5 -32t11.5 -74.5t-33.5 -86t-75.5 -66.5l-6 13q30 14 47 44t18 67q-5 -2 -10.5 -3t-11.5 -1q-29 0 -49.5 20.5t-20.5 49.5t20.5 49t49.5 20z" />
    <glyph glyph-name="quotedblleft" unicode="&#x201c;" horiz-adv-x="371" 
d="M268 466q-43 0 -60.5 32t-11.5 74.5t33.5 86t75.5 66.5l6 -13q-30 -14 -47 -44t-18 -67q5 2 10.5 3t11.5 1q29 0 49.5 -20.5t20.5 -49.5t-20.5 -49t-49.5 -20zM107 466q-43 0 -60.5 32t-11.5 74.5t33.5 86t75.5 66.5l6 -13q-30 -14 -47 -44t-18 -67q5 2 10.5 3t11.5 1
q29 0 49.5 -20.5t20.5 -49.5t-20.5 -49t-49.5 -20z" />
    <glyph glyph-name="quotedblright" unicode="&#x201d;" horiz-adv-x="371" 
d="M103 725q43 0 60.5 -32t11.5 -74.5t-33.5 -86t-75.5 -66.5l-6 13q30 14 47 44t18 67q-5 -2 -10.5 -3t-11.5 -1q-29 0 -49.5 20.5t-20.5 49.5t20.5 49t49.5 20zM264 725q43 0 60.5 -32t11.5 -74.5t-33.5 -86t-75.5 -66.5l-6 13q30 14 47 44t18 67q-5 -2 -10.5 -3t-11.5 -1
q-29 0 -49.5 20.5t-20.5 49.5t20.5 49t49.5 20z" />
    <glyph glyph-name="quotedblbase" unicode="&#x201e;" horiz-adv-x="385" 
d="M278 132q43 0 60.5 -32t11.5 -74.5t-33.5 -86t-75.5 -66.5l-6 13q30 14 47 44t18 67q-5 -2 -10.5 -3t-11.5 -1q-29 0 -49.5 20.5t-20.5 49.5t20.5 49t49.5 20zM103 132q43 0 60.5 -32t11.5 -74.5t-33.5 -86t-75.5 -66.5l-6 13q30 14 47 44t18 67q-5 -2 -10.5 -3t-11.5 -1
q-29 0 -49.5 20.5t-20.5 49.5t20.5 49t49.5 20z" />
    <glyph glyph-name="perthousand" unicode="&#x2030;" horiz-adv-x="923" 
d="M139 0h-30l379 700h30zM763 293q40 0 66.5 -12t42.5 -33t22.5 -48.5t6.5 -58.5q0 -30 -6.5 -57.5t-22.5 -48t-42.5 -32.5t-66.5 -12t-66.5 12t-42.5 32.5t-22.5 48t-6.5 57.5q0 31 6.5 58.5t22.5 48.5t42.5 33t66.5 12zM763 0q19 0 31.5 11.5t19.5 30.5t9.5 45t2.5 54
q0 29 -2.5 55t-9.5 45.5t-19.5 31t-31.5 11.5t-31 -11.5t-19 -31t-10 -45.5t-3 -55q0 -28 3 -54t10 -45t19 -30.5t31 -11.5zM139 0h-30l379 700h30zM455 293q40 0 66.5 -12t42.5 -33t22.5 -48.5t6.5 -58.5q0 -30 -6.5 -57.5t-22.5 -48t-42.5 -32.5t-66.5 -12t-66.5 12
t-42.5 32.5t-22.5 48t-6.5 57.5q0 31 6.5 58.5t22.5 48.5t42.5 33t66.5 12zM455 0q19 0 31.5 11.5t19.5 30.5t9.5 45t2.5 54q0 29 -2.5 55t-9.5 45.5t-19.5 31t-31.5 11.5t-31 -11.5t-19 -31t-10 -45.5t-3 -55q0 -28 3 -54t10 -45t19 -30.5t31 -11.5zM171 709q40 0 66.5 -12
t42.5 -33t22.5 -48.5t6.5 -58.5q0 -30 -6.5 -57.5t-22.5 -48t-42.5 -32.5t-66.5 -12t-66.5 12t-42.5 32.5t-22.5 48t-6.5 57.5q0 31 6.5 58.5t22.5 48.5t42.5 33t66.5 12zM171 416q19 0 31.5 11.5t19.5 30.5t9.5 45t2.5 54q0 29 -2.5 55t-9.5 45.5t-19.5 31t-31.5 11.5
t-31 -11.5t-19 -31t-10 -45.5t-3 -55q0 -28 3 -54t10 -45t19 -30.5t31 -11.5z" />
    <glyph glyph-name="guilsinglleft" unicode="&#x2039;" horiz-adv-x="253" 
d="M200 165l-180 184v9l178 184l14 -9l-88 -179l90 -180z" />
    <glyph glyph-name="guilsinglright" unicode="&#x203a;" horiz-adv-x="232" 
d="M110 354l-88 179l14 9l178 -184v-9l-180 -184l-14 9z" />
    <glyph glyph-name="Euro" unicode="&#x20ac;" horiz-adv-x="699" 
d="M463 13q50 0 89 12t67.5 29t47 37t26.5 36h8v-75q-13 -8 -40.5 -18.5t-61.5 -20t-70 -16t-66 -6.5q-80 0 -152.5 24.5t-127 71t-87 112.5t-32.5 150t32 150.5t87 113t127 71.5t153 25q33 0 69.5 -6.5t69 -15.5t59 -19.5t39.5 -19.5v-75h-8q-4 7 -20.5 26t-45.5 38.5
t-70 34.5t-93 15q-69 0 -112 -32.5t-67 -82t-32.5 -109.5t-8.5 -114t9 -113.5t33 -109t67 -81.5t111 -32zM68 409h521v-20h-523h-85v20h87zM66 311h523v-20h-521h-87v20h85z" />
    <glyph glyph-name="k.ss01" horiz-adv-x="682" 
d="M340 367l-79 -112v-191q0 -23 11 -36.5t22 -19.5v-8h-244v8q11 6 22 19.5t11 36.5v572q0 23 -11 36.5t-22 19.5v8h244v-8q-11 -6 -22 -19.5t-11 -36.5v-333l231 336q17 26 17.5 36.5t-10.5 16.5v8h109v-8q-15 0 -34.5 -10.5t-45.5 -46.5l-72 -103l207 -443q23 -50 54 -98
t69 -86t82.5 -61t94.5 -23q43 0 79.5 6t70.5 18t67 30.5t68 42.5l5 -4q-44 -33 -83.5 -56.5t-78 -37.5t-77 -20.5t-81.5 -6.5q-119 0 -196 24.5t-127 64.5t-80 90.5t-54 101.5z" />
    <glyph glyph-name="l.ss01" horiz-adv-x="569" 
d="M261 13q90 -12 175.5 -43t169.5 -64t168.5 -58.5t173.5 -25.5q72 0 126 15t92 37t62 47t36 45l2 -3q-4 -12 -22 -46.5t-60 -71t-112 -65t-178 -28.5q-104 0 -192.5 18.5t-165.5 46t-143.5 59.5t-125.5 59.5t-112.5 46t-104.5 18.5v8q11 6 22 19.5t11 36.5v572
q0 23 -11 36.5t-22 19.5v8h244v-8q-11 -6 -22 -19.5t-11 -36.5v-623z" />
    <glyph glyph-name="l_L" horiz-adv-x="645" 
d="M382 28v608q0 23 -11 36.5t-22 19.5v8h244v-8q-11 -6 -22 -19.5t-11 -36.5v-623q90 -12 175.5 -43t169.5 -64t168.5 -58.5t173.5 -25.5q72 0 126 15t92 37t62 47t36 45l2 -3q-4 -12 -22 -46.5t-60 -71t-112 -65t-178 -28.5q-104 0 -184.5 18.5t-150 46t-132.5 59.5
t-131.5 59.5t-148.5 46t-182 18.5h-214v8q11 6 22 19.5t11 36.5v572q0 23 -11 36.5t-22 19.5v8h244v-8q-11 -6 -22 -19.5t-11 -36.5v-608h121z" />
    <glyph glyph-name="r.ss01" horiz-adv-x="700" 
d="M236 294h65q48 0 84.5 14.5t60.5 40t36.5 60t12.5 74.5t-12.5 74.5t-36.5 60t-60.5 40t-84.5 14.5h-40v-610q0 -23 11 -36t22 -18v-8h-244v8q11 6 22 19.5t11 36.5v572q0 23 -11 36.5t-22 19.5v8h304q89 0 149.5 -17t98.5 -46.5t54.5 -69t16.5 -84.5t-18 -84.5t-55 -69
t-92.5 -46.5t-129.5 -17h-143zM300 278h186l124 -189q33 -50 65.5 -98t72.5 -86t90.5 -61t119.5 -23q43 0 78.5 6t67.5 18t61.5 30.5t60.5 42.5l5 -4q-38 -33 -73.5 -56.5t-71 -37.5t-73 -20.5t-80.5 -6.5q-119 0 -201 24.5t-139.5 64.5t-96 90.5t-70.5 101.5z" />
    <glyph glyph-name="t_T" horiz-adv-x="908" 
d="M38 700h832l18 -155h-8q-2 6 -9.5 26.5t-18 43t-23 40t-24.5 17.5h-110v-608q0 -23 11 -36.5t22 -19.5v-8h-244v8q11 6 22 19.5t11 36.5v608h-126v-608q0 -23 11 -36.5t22 -19.5v-8h-244v8q11 6 22 19.5t11 36.5v608h-110q-12 0 -24.5 -17.5t-23 -40t-18 -43t-9.5 -26.5
h-8z" />
    </font>
</defs>
</svg>
